<svg xmlns="http://www.w3.org/2000/svg" xmlns:xlink="http://www.w3.org/1999/xlink" viewBox="0 0 1920.5 1920.5"><defs><style>.cls-1{fill:url(#linear-gradient);}.cls-2,.cls-3,.cls-5,.cls-6{fill:none;stroke-miterlimit:10;}.cls-2,.cls-3{stroke:#121212;}.cls-2{stroke-linecap:round;stroke-width:120px;}.cls-3{stroke-width:70px;}.cls-4{fill:#121212;}.cls-5,.cls-6{stroke:#e3f907;}.cls-5{stroke-width:27px;}.cls-6{stroke-width:25px;}</style><linearGradient id="linear-gradient" y1="960" x2="1920" y2="960" gradientTransform="translate(1481.7 -293.26) rotate(67.59)" gradientUnits="userSpaceOnUse"><stop offset="0" stop-color="#ff0"/><stop offset="0.41" stop-color="#edfb04"/><stop offset="0.77" stop-color="#e3f907"/></linearGradient></defs><g id="Layer_1" data-name="Layer 1"><circle class="cls-1" cx="960.25" cy="960.25" r="960"/></g><g id="Layer_2" data-name="Layer 2"><path class="cls-2" d="M656,381.55C781.35,7.53,1295.31,119.22,1288.94,510c3.27,250-206.72,459.2-429.18,350.48" transform="translate(0.25 0.25)"/><path class="cls-3" d="M830.41,838.82c21,13.24,61.1,42.71,88.84,95.26a245.37,245.37,0,0,1,26.44,84.31c.6.86,6.72,273.29,23,272.74,9.79-.33,22.48-265.09,28.13-274.47a279.55,279.55,0,0,1,27.75-85.4,286.57,286.57,0,0,1,81.68-96.68" transform="translate(0.25 0.25)"/><rect class="cls-4" x="898.45" y="1018.74" width="147.74" height="341.51" rx="24.17"/><polyline class="cls-5" points="881.53 1112.41 1078.92 1063.46 1078.92 1148.51 881.53 1211.21 881.53 1306.05 1078.92 1242.07 1078.92 1324.62"/></g><g id="Layer_3" data-name="Layer 3"><circle class="cls-4" cx="980.87" cy="1658.5" r="172.67"/><path class="cls-6" d="M996.71,1856s7.18-194-233.84-190.48" transform="translate(0.25 0.25)"/><path class="cls-6" d="M972.61,1449.81s-19.21,177.87,223.16,175.34" transform="translate(0.25 0.25)"/></g></svg>