<svg id="Capa_1" data-name="Capa 1" xmlns="http://www.w3.org/2000/svg" viewBox="0 0 800.54 800.68"><defs><style>.cls-1{fill:#fff;}.cls-2{fill:#d3ef30;}.cls-3{isolation:isolate;font-size:189.25px;fill:#383838;font-family:Lexend-ExtraBold, Lexend;font-weight:800;letter-spacing:-0.07em;}</style></defs><circle class="cls-1" cx="400.27" cy="400.3" r="400.27"/><path class="cls-2" d="M89.13,148.55C-31.82,298-29.43,512.4,94.83,659.15c76.9-62.3,185.8-101.9,307.1-103.2s231.3,35.8,309.4,96.4C832.4,502.94,830,288.52,705.63,141.85c-76.7,62.1-185.8,101.8-307.1,103.2C277.33,246.25,167.43,209.15,89.13,148.55Z" transform="translate(0 0.01)"/><path class="cls-2" d="M671.33,106A399.12,399.12,0,0,0,395.83,0c-106.2,1.1-202.2,43.8-273.1,112,69.2,52.2,167.1,84.1,275.3,82.9S603.23,159.65,671.33,106Z" transform="translate(0 0.01)"/><path class="cls-2" d="M129.33,694.85c155.64,143.46,396.13,140.74,548.5-6.2-69.1-52.1-166.9-84-275.2-82.8S197.33,641.25,129.33,694.85Z" transform="translate(0 0.01)"/><text class="cls-3" transform="matrix(0.62, 0, -0.21, 0.98, 50.92, 465.73)">TENNISDLE</text></svg>