<svg xmlns="http://www.w3.org/2000/svg" viewBox="0 0 1920.5 1920.5">
    <defs>
        <style>
            .cls-1 {
                fill: #ff0;
            }

            .cls-2,
            .cls-3,
            .cls-5 {
                fill: none;
                stroke-miterlimit: 10;
            }

            .cls-2,
            .cls-3 {
                stroke: #121212;
            }

            .cls-2 {
                stroke-width: 10px;
            }

            .cls-3 {
                stroke-width: 70px;
            }

            .cls-4 {
                fill: #121212;
            }

            .cls-5 {
                stroke: #ff0;
                stroke-width: 25px;
            }
        </style>
    </defs>
    <g id="Layer_1" data-name="Layer 1">
        <circle class="cls-1" cx="960.25" cy="960.25" r="960" />
    </g>
    <g id="Layer_7" data-name="Layer 7">
        <g id="Layer_2" data-name="Layer 2">
            <rect class="cls-2" x="967.01" y="261.55" width="36.13" height="757.65" />
            <rect class="cls-2" x="1041.36" y="277.18" width="36.13" height="757.65" />
            <rect class="cls-2" x="1116.06" y="277.19" width="36.33" height="720.34" />
            <polygon class="cls-2" points="1226.75 948.2 1190.27 959.33 1190.78 346.39 1226.74 346.39 1226.75 948.2" />
            <polygon class="cls-2" points="711.45 935.26 675.84 904.81 675.84 382.89 711.45 353.32 711.45 935.26" />
            <polygon class="cls-2" points="785.81 982.45 749.68 982.45 749.16 322 787.91 308.96 785.81 982.45" />
            <polygon class="cls-2" points="860.7 982.46 824.57 982.46 824.57 290.69 861.22 276.77 860.7 982.46" />
            <polygon class="cls-2" points="935.06 998.09 898.92 998.09 898.93 261.11 934.54 254.16 935.06 998.09" />
            <polygon class="cls-2" points="643.37 858.71 606.72 836.09 606.72 443.79 643.37 409.86 643.37 858.71" />
            <polygon class="cls-2" points="1297.44 873.71 1261.4 891.71 1261.4 397.3 1296.92 415.19 1297.44 873.71" />
            <rect class="cls-2" x="935.67" y="290.11" width="36.13" height="757.65"
                transform="translate(1622.93 -284.54) rotate(90)" />
            <rect class="cls-2" x="920.04" y="364.47" width="36.13" height="757.65"
                transform="translate(1681.65 -194.56) rotate(90)" />
            <rect class="cls-2" x="938.58" y="457.92" width="36.33" height="720.34"
                transform="translate(1775.09 -138.4) rotate(90)" />
            <polygon class="cls-2" points="646.16 910.87 635.03 874.38 1247.97 874.9 1247.97 910.86 646.16 910.87" />
            <polygon class="cls-2" points="659.1 395.57 689.55 359.96 1211.46 359.96 1241.04 395.57 659.1 395.57" />
            <polygon class="cls-2" points="611.91 469.93 611.91 433.8 1272.36 433.27 1285.4 472.03 611.91 469.93" />
            <polygon class="cls-2" points="611.9 544.82 611.9 508.69 1303.67 508.68 1317.59 545.34 611.9 544.82" />
            <polygon class="cls-2" points="596.27 619.18 596.27 583.04 1333.25 583.05 1340.2 618.66 596.27 619.18" />
            <polygon class="cls-2" points="735.65 327.49 758.27 290.83 1150.57 290.83 1184.5 327.49 735.65 327.49" />
            <polygon class="cls-2" points="720.65 981.56 702.65 945.52 1197.06 945.52 1179.17 981.04 720.65 981.56" />
        </g>
        <g id="Layer_4" data-name="Layer 4">
            <path class="cls-3"
                d="M1351.6,640.3c0,169.2-106.57,313.51-256.25,369.46a393.46,393.46,0,0,1-138,24.85C739.53,1034.61,563,858.07,563,640.3S739.53,246,957.3,246,1351.6,422.54,1351.6,640.3Z"
                transform="translate(0.25 0.25)" />
            <path class="cls-3" d="M1126.35,1010.46c4.74-26.82-172.32,12.07-172.57,306,0,0-10.53-271.83-149.29-319"
                transform="translate(0.25 0.25)" />
        </g>
        <g id="Layer_6" data-name="Layer 6">
            <circle class="cls-1" cx="954.04" cy="636.16" r="170.37" />
            <path class="cls-1"
                d="M508.08,625.37l604.09,10.24a33.44,33.44,0,0,1,2.74,5.94c13,37.83-48.38,90.18-83,120.82-91,80.62-136.53,120.92-159,155.44-97.71,150.43,15.19,419.71,36.53,417.37,2-.22,3.44-2.86,4.47-5.72L463.33,952.54a3.65,3.65,0,0,1-1.27-3.26l42.36-320.75A3.64,3.64,0,0,1,508.08,625.37Z"
                transform="translate(0.25 0.25)" />
        </g>
        <g id="Layer_8" data-name="Layer 8">
            <rect class="cls-4" x="894.32" y="1197.32" width="111.53" height="160.71" rx="14.07" />
            <rect class="cls-1" x="824.94" y="1321.14" width="240.62" height="64.11" />
        </g>
    </g>
    <g id="Layer_3" data-name="Layer 3">
        <circle class="cls-4" cx="965.67" cy="1600.38" r="152.69" />
        <path class="cls-5" d="M979.65,1775s6.35-171.51-206.78-168.44" transform="translate(0.25 0.25)" />
        <path class="cls-5" d="M958.34,1415.81s-17,157.29,197.34,155" transform="translate(0.25 0.25)" />
    </g>
</svg>