<svg viewBox="0 0 114 64" fill="none" xmlns="http://www.w3.org/2000/svg">
    <g clip-path="url(#clip0_289_14517)">
        <path d="M51.4809 1.49609H47.7159L47.2219 3.31708H50.9899L51.4809 1.49609Z" fill="#ffffff"></path>
        <path
            d="M57.317 5.95197H59.292L59.704 4.42596H57.728L58.274 2.38794H54.674L54.124 4.42596H52.454L52.042 5.95197H53.712L53.1609 7.98895C52.7209 9.63295 53.349 10.579 56.014 10.579C56.689 10.579 57.3789 10.579 58.0649 10.553L58.465 9.07697L57.812 9.08594C57.112 9.08594 56.966 9.01697 56.812 8.85297C56.572 8.59197 56.751 8.05295 56.812 7.84595L57.317 5.95197Z"
            fill="#ffffff"></path>
        <path
            d="M29.8259 6.10352e-05L29.8109 0.0580444C30.2055 0.292344 30.5066 0.656179 30.6631 1.08759C30.8195 1.51899 30.8216 1.99126 30.6689 2.42401L28.4829 10.549H32.3959L34.4639 2.84906L36.2329 7.36804C37.1179 9.35504 38.0209 10.5471 41.2329 10.5471H43.2259L46.0639 0.00201416H42.1539L40.0769 7.77203L38.4629 3.57202C37.7869 1.54902 36.6629 -0.00195312 33.3169 -0.00195312L29.8259 6.10352e-05Z"
            fill="#ffffff"></path>
        <path
            d="M50.6899 4.42505H46.9209L45.9529 7.98907C45.5129 9.63307 46.1389 10.579 48.8049 10.579C49.4809 10.579 50.1699 10.5791 50.8559 10.5521L51.2559 9.07605L50.6139 9.08606C50.0609 9.08606 49.9229 9.01709 49.7709 8.85309C49.5299 8.59209 49.7089 8.05305 49.7659 7.84705L50.6899 4.42505Z"
            fill="#ffffff"></path>
        <path
            d="M65.2479 5.95215H67.2228L67.6309 4.42816H65.6548L66.2029 2.39014H62.6078L62.0569 4.42816H60.3859L59.9739 5.95416H61.6439L61.0939 7.99115C60.6529 9.63515 61.2789 10.5811 63.9449 10.5811C64.6209 10.5811 65.3118 10.5811 65.9958 10.5551L66.3959 9.07916L65.7408 9.08813C65.0408 9.08813 64.8948 9.01916 64.7408 8.85516C64.4998 8.59416 64.6799 8.05514 64.7349 7.84814L65.2479 5.95215Z"
            fill="#ffffff"></path>
        <path
            d="M74.005 4.22005C72.4744 4.16233 70.9518 4.46658 69.561 5.10805C69.0742 5.3269 68.6403 5.64789 68.2884 6.04921C67.9366 6.45054 67.6752 6.92281 67.522 7.43404C67.041 9.50104 68.867 10.671 72.39 10.671C75.99 10.671 78.342 9.50104 78.827 7.42104C79.3 5.38904 77.49 4.22005 74.005 4.22005ZM74.969 7.43508C74.8806 7.99047 74.5961 8.49581 74.1672 8.85958C73.7383 9.22335 73.1933 9.42146 72.631 9.41805C71.882 9.41805 71.525 9.18803 71.348 8.76003C71.203 8.3259 71.2002 7.85687 71.34 7.42104C71.4255 6.86903 71.7091 6.36703 72.1377 6.00875C72.5663 5.65047 73.1106 5.46044 73.669 5.47408C75.057 5.47408 75.261 6.35004 74.969 7.43404"
            fill="#ffffff"></path>
        <path
            d="M98.7979 13.409V21.146C99.4866 21.1805 100.167 21.3108 100.82 21.533L100.851 21.544L100.903 21.564L100.923 21.572L100.953 21.583L100.981 21.594L100.999 21.601L101.037 21.617L101.051 21.623L101.094 21.641L101.137 21.66H101.143L101.189 21.68H101.194C101.547 21.8388 101.875 22.0468 102.17 22.298L102.207 22.33L102.243 22.363C102.631 22.702 102.939 23.1232 103.143 23.5959C103.348 24.0686 103.446 24.5811 103.428 25.096C103.421 25.5448 103.367 25.9917 103.266 26.429C103.179 27.1494 102.924 27.8393 102.522 28.4432C102.12 29.0471 101.581 29.5481 100.95 29.906L100.908 29.933L100.89 29.944L100.863 29.96L100.828 29.981L100.817 29.987C100.189 30.3588 99.501 30.6187 98.7839 30.755V39.403C106.565 38.985 110.616 35.43 112.555 28.958V28.952L112.579 28.874V28.863C112.587 28.839 112.593 28.814 112.6 28.789V28.774C112.608 28.75 112.614 28.725 112.621 28.701V28.687L112.642 28.615C112.643 28.609 112.643 28.603 112.642 28.597L112.663 28.525V28.509C112.67 28.485 112.677 28.462 112.683 28.437C112.683 28.431 112.683 28.423 112.688 28.417L112.708 28.346V28.333L112.729 28.257V28.243C112.775 28.074 112.818 27.903 112.861 27.731V27.714C112.867 27.692 112.872 27.67 112.877 27.648C112.882 27.626 112.877 27.63 112.884 27.621C112.891 27.612 112.894 27.58 112.899 27.56L112.908 27.527C112.908 27.507 112.917 27.487 112.922 27.468C112.927 27.449 112.922 27.445 112.93 27.434C112.938 27.423 112.939 27.396 112.944 27.377C112.949 27.358 112.95 27.351 112.953 27.337C112.956 27.323 112.961 27.302 112.966 27.284L112.975 27.242L112.986 27.19L112.997 27.144C112.997 27.127 113.004 27.11 113.007 27.094C113.01 27.078 113.014 27.064 113.017 27.049C113.02 27.034 113.025 27.015 113.028 27L113.04 26.95L113.05 26.903C113.05 26.887 113.057 26.87 113.06 26.856C113.063 26.842 113.068 26.822 113.07 26.806L113.081 26.759C113.081 26.742 113.088 26.726 113.091 26.71L113.101 26.661L113.11 26.613C113.11 26.595 113.118 26.578 113.121 26.56C113.124 26.542 113.127 26.53 113.129 26.515C113.131 26.5 113.137 26.478 113.141 26.46C113.145 26.442 113.146 26.432 113.149 26.417C113.152 26.402 113.159 26.37 113.163 26.348L113.169 26.32L113.189 26.22C113.369 25.2947 113.461 24.3546 113.465 23.412C113.465 19.084 111.413 13.396 100.965 13.396L98.7979 13.409Z"
            fill="#ffffff"></path>
        <path
            d="M21.3531 35.5941L15.1421 36.717V46.561H17.5641L21.8181 39.4611H22.8561V35.327L21.3531 35.5941ZM18.3321 28.259H22.8551V21.259L18.3321 28.259Z"
            fill="#ffffff"></path>
        <path d="M0 39.4571H11.09L6.49597 46.5571H15.244V36.6951L0 39.4571Z" fill="#ffffff"></path>
        <path
            d="M85.6299 27.0189C85.5369 27.0269 84.4299 27.1029 83.7299 27.1539C83.7826 27.3179 83.8142 27.4879 83.8239 27.6599V27.674V27.6889C83.7999 28.0209 83.6239 28.1889 83.4149 28.1729H83.3909C83.0375 28.0423 82.7402 27.7932 82.5499 27.468V27.463C82.5379 27.444 82.5129 27.434 82.4999 27.45C82.4958 27.4576 82.4937 27.4662 82.4939 27.4749C82.4939 27.5129 82.4939 27.5519 82.4939 27.5889C82.4939 27.6059 82.4939 27.6229 82.4939 27.6389C82.4839 27.7389 82.4249 28.033 82.2159 28.093L82.1889 28.0999C82.081 28.1181 81.9705 28.1133 81.8645 28.0859C81.7585 28.0585 81.6595 28.0091 81.5739 27.9409C81.5614 27.9288 81.546 27.9202 81.5291 27.916C81.5123 27.9117 81.4945 27.9119 81.4778 27.9165C81.461 27.9211 81.4458 27.9301 81.4335 27.9424C81.4213 27.9548 81.4124 27.9701 81.4079 27.9869C81.3479 28.1589 81.3079 28.275 81.0879 28.275C81.0619 28.275 81.0329 28.275 81.0019 28.27C80.9709 28.265 80.9259 28.2599 80.8809 28.2509H80.8509C80.6059 28.2319 80.6509 28.3349 80.4819 28.3669C80.2435 28.4109 79.9975 28.3591 79.7969 28.223C79.7029 28.17 79.6059 28.1119 79.4969 28.0609C79.1519 27.9019 79.2659 27.575 78.9239 27.515C78.8579 27.504 78.7429 27.4819 78.6779 27.4749C78.9274 28.2883 79.11 29.1208 79.2239 29.9639V29.9699C79.2241 29.9845 79.2189 29.9987 79.2093 30.0098C79.1997 30.0208 79.1864 30.028 79.1719 30.0299L78.8209 30.072C78.8074 30.0729 78.7947 30.0789 78.7853 30.0887C78.7759 30.0985 78.7704 30.1114 78.7699 30.1249V30.137C78.9219 30.7679 79.0401 31.4064 79.1239 32.0499C79.1649 32.5789 79.1829 32.931 79.1829 33.213C79.182 33.4891 79.1613 33.7647 79.1209 34.0379C79.1196 34.0492 79.1215 34.0607 79.1265 34.071C79.1314 34.0813 79.1392 34.0899 79.1489 34.0959C79.1586 34.1017 79.1698 34.1041 79.1809 34.1029H79.1879C79.33 34.0759 79.4657 34.0223 79.5879 33.9449C79.5993 33.7254 79.6417 33.5085 79.7139 33.3009C79.749 33.2525 79.7867 33.2061 79.8269 33.1619C79.8562 33.1305 79.8781 33.0929 79.8909 33.0519L79.9809 32.731C79.9948 32.6829 80.0143 32.6365 80.0389 32.593L80.5179 31.7289C80.5559 31.6512 80.6189 31.5884 80.6969 31.5509C80.7315 31.5384 80.7689 31.5356 80.8049 31.5429H80.8229C80.9106 31.5924 80.9846 31.6627 81.0385 31.7477C81.0924 31.8326 81.1245 31.9296 81.1319 32.0299V32.0449C81.1053 32.3018 81.0281 32.551 80.9049 32.778L81.1049 33.1039C81.1736 33.1229 81.2447 33.132 81.3159 33.1309C81.372 33.1308 81.4279 33.1255 81.4829 33.1149C81.6084 33.09 81.7269 33.0378 81.8299 32.9619C81.9365 32.8919 82.0387 32.8154 82.1359 32.7329C82.121 32.6876 82.116 32.6396 82.1214 32.5922C82.1268 32.5447 82.1424 32.499 82.1671 32.4582C82.1918 32.4173 82.225 32.3823 82.2645 32.3555C82.304 32.3287 82.3489 32.3108 82.3959 32.3029C82.5417 32.2658 82.6943 32.2641 82.8409 32.2979C82.9481 32.3427 83.0419 32.4146 83.113 32.5064C83.1842 32.5982 83.2303 32.707 83.2469 32.822C83.2469 32.97 83.1559 33.136 82.8989 33.304C82.8939 33.3073 82.8899 33.312 82.8875 33.3174C82.885 33.3229 82.8841 33.329 82.8849 33.335C82.8856 33.3393 82.8872 33.3434 82.8899 33.3469C82.8926 33.3514 82.8964 33.355 82.901 33.3575C82.9056 33.3599 82.9107 33.3612 82.9159 33.361H82.9369C83.0447 33.3532 83.1527 33.3739 83.2499 33.421L83.2589 33.4259C83.6429 33.6379 83.4979 34.3039 83.0679 34.5349C83.0545 34.5424 83.0434 34.5535 83.0358 34.5669C83.0282 34.5803 83.0244 34.5956 83.0249 34.611C83.0251 34.6298 83.0307 34.6481 83.0409 34.6639C83.1436 34.7962 83.2062 34.9552 83.2209 35.1219C83.2209 35.1369 83.2209 35.152 83.2209 35.166C83.2209 35.18 83.2119 35.417 82.4689 35.666C82.4689 35.666 82.3109 35.7299 82.3089 35.8489C82.3092 35.8772 82.3164 35.905 82.3299 35.9299C82.4219 35.9629 82.5219 35.9989 82.6399 36.0359C82.6399 36.0359 83.2099 36.1659 83.2069 36.4769C83.2065 36.5087 83.2008 36.5401 83.1899 36.5699C83.1762 36.6008 83.1561 36.6284 83.1309 36.6509C83.0444 36.7225 82.9339 36.7582 82.8219 36.7509C82.6889 36.7475 82.5574 36.7232 82.4319 36.679C82.4319 36.679 82.3249 36.6859 82.1899 36.6859C82.0561 36.6881 81.9223 36.6791 81.7899 36.6589C81.3858 36.7895 80.9732 36.8921 80.5549 36.9659C80.4177 36.9938 80.2941 37.0679 80.2049 37.1759C79.5743 37.7709 78.7849 38.1704 77.9319 38.3259C77.4749 38.3309 77.3049 38.0799 77.0749 37.7579C76.9767 37.6172 76.8688 37.4835 76.7519 37.3579C75.9946 36.4306 75.5756 35.2731 75.5639 34.0759C75.5622 34.0598 75.5544 34.0449 75.5422 34.0341C75.53 34.0234 75.5142 34.0176 75.4979 34.0179C75.4824 34.0184 75.4674 34.0237 75.4549 34.033C75.4421 34.0443 75.434 34.0599 75.4319 34.0769C75.2709 35.4459 75.1909 36.6769 74.4319 37.3499C73.7396 37.8751 72.9294 38.2232 72.0719 38.364L72.0089 38.3789L71.9779 38.387L71.9469 38.395L71.8699 38.4139H71.8609C70.4498 38.7742 69.0701 39.2473 67.7349 39.8289H67.7259L67.6539 39.8599L67.6369 39.8679L67.6059 39.882L67.5699 39.8979L67.5479 39.9069L67.4879 39.934H67.4809L67.2809 40.025H87.3599L87.4799 39.4459H97.9189H97.9829H98.0309H98.0929H98.1419H98.2019H98.2519H98.3079H98.3629H98.4119H98.4729H98.5159H98.5819H98.6139H98.6919H98.7049L98.9049 39.4349V30.7719C98.2301 30.9066 97.5408 30.9537 96.8539 30.9119C96.7089 30.9039 96.5629 30.8949 96.4149 30.8809C93.5149 30.6149 90.9149 28.8029 89.8919 28.2119C88.8368 27.5799 87.6582 27.1819 86.4359 27.0449C86.3949 27.0449 86.3259 27.0369 86.2439 27.0349C86.1779 27.0349 86.1019 27.0349 86.0249 27.0349C85.8939 27.0349 85.7539 27.0349 85.6369 27.0479M91.1369 24.7979C91.1117 24.8039 91.0876 24.8134 91.0649 24.8259C90.1473 25.3469 89.1624 25.7393 88.1379 25.9919C88.0905 26.0044 88.0482 26.0317 88.0173 26.0698C87.9863 26.1079 87.9684 26.1549 87.9659 26.2039C87.9622 26.247 87.973 26.2901 87.9965 26.3263C88.0201 26.3625 88.0551 26.3898 88.0959 26.4039C88.9864 26.6292 89.8471 26.9592 90.6599 27.387C90.7103 27.4091 90.7656 27.4179 90.8204 27.4124C90.8752 27.407 90.9277 27.3875 90.9727 27.3558C91.0178 27.3241 91.0539 27.2813 91.0776 27.2316C91.1013 27.1818 91.1117 27.1269 91.1079 27.072C91.1234 26.4293 91.2377 25.7928 91.4469 25.1849C91.466 25.1196 91.466 25.0502 91.4469 24.9849C91.432 24.9302 91.3999 24.8817 91.3552 24.8467C91.3105 24.8118 91.2556 24.7922 91.1989 24.791C91.1787 24.7911 91.1585 24.7938 91.1389 24.799M27.9389 13.4389L22.7569 21.4529V28.291L31.0779 28.296L28.9779 27.5289L30.7939 24.4969L31.6579 28.778L32.6879 33.5729L22.7529 35.3729V39.489H33.8899L34.0099 40.0679H44.0099L38.4489 13.4429L27.9389 13.4389ZM40.1009 13.4389L41.8519 21.8439H53.9269L52.5979 28.296H61.6979L43.1229 31.6419H51.9089L50.1749 40.059H60.7199C60.8455 39.7984 61.0256 39.5679 61.2479 39.3829L61.2659 39.3669L61.2719 39.3619L61.2829 39.3529C61.4099 39.2439 61.5289 39.1529 61.6169 39.0919C63.5634 37.7209 65.6938 36.6318 67.9449 35.8569C68.1817 35.8114 68.407 35.7192 68.6079 35.5859C68.6349 35.5529 68.6209 35.5269 68.5719 35.5099C67.3409 35.4893 66.1178 35.7105 64.9719 36.1609C64.8582 36.2048 64.7416 36.2408 64.6229 36.2689C64.593 36.2757 64.5626 36.2797 64.5319 36.2809C64.4089 36.2809 64.5029 36.167 64.7609 35.981C64.9609 35.835 65.2669 35.6439 65.6449 35.4269C67.4189 34.4096 69.312 33.6155 71.2809 33.0629C71.8899 32.9099 72.1119 32.7849 72.0429 32.7079C71.8606 32.6248 71.6587 32.594 71.4599 32.619C70.9116 32.6297 70.3649 32.6801 69.8239 32.77C67.2619 33.2112 64.7991 34.1055 62.5509 35.4109H62.5459H62.5369C62.5322 35.4108 62.5276 35.4094 62.5236 35.407C62.5195 35.4045 62.5162 35.4011 62.5139 35.3969C62.5122 35.3933 62.5112 35.3894 62.5112 35.3854C62.5112 35.3814 62.5122 35.3775 62.5139 35.374C62.8145 34.881 62.9986 34.3258 63.0519 33.7509C63.0526 33.6571 63.0449 33.5634 63.0289 33.4709C63.0044 33.3232 62.9916 33.1737 62.9909 33.0239C62.9821 32.6892 63.0537 32.3572 63.1999 32.0559C63.3609 31.7559 63.2629 30.944 63.4389 30.525C63.4436 30.5127 63.4524 30.5023 63.4639 30.4959C63.4747 30.4889 63.4871 30.4851 63.4999 30.4849C63.5072 30.4838 63.5146 30.4838 63.5219 30.4849L65.7759 31.1899L74.5819 28.1899L66.1969 29.4329L63.2879 26.947C62.9003 26.3523 62.6958 25.6568 62.6999 24.947C62.6829 24.6705 62.7454 24.395 62.8799 24.153C63.3155 23.4851 63.8217 22.8662 64.3899 22.3069C65.1032 21.9882 65.8384 21.7208 66.5899 21.507C66.7126 21.4439 66.8426 21.3962 66.9769 21.3649H66.9839C67.1321 21.3326 67.2833 21.3168 67.4349 21.3179H67.5129C67.5899 21.3179 67.6649 21.3239 67.7379 21.3289C67.8766 21.3399 68.0159 21.3422 68.1549 21.3359C68.1919 21.3359 68.2289 21.3289 68.2649 21.3229C68.7839 21.1956 69.2948 21.0373 69.7949 20.8489L69.8149 20.8179C69.8113 20.6237 69.7946 20.4299 69.7649 20.2379C69.6609 19.792 69.6023 19.3366 69.5899 18.8789C69.5899 18.7899 69.5899 18.705 69.6009 18.627C69.6509 18.105 70.1009 17.6479 70.1289 17.2999C70.1289 17.2829 70.1289 17.2669 70.1289 17.2509C70.1289 17.0169 70.0179 16.7799 70.0169 16.5509C70.015 16.4495 70.0402 16.3494 70.0899 16.2609C70.2782 15.8693 70.4228 15.4582 70.5209 15.0349C70.4839 14.7449 70.3379 14.5929 70.3359 14.3719C70.3371 14.2763 70.3593 14.1821 70.4009 14.0959C70.5009 13.8829 70.6599 13.5809 70.7309 13.4309L40.1009 13.4389ZM76.8289 13.4389C76.9228 13.5417 76.9979 13.6602 77.0509 13.7889C77.1418 14.0494 77.2019 14.3195 77.2299 14.5939C77.2918 14.8299 77.3379 15.0698 77.3679 15.312C77.3675 15.3813 77.3615 15.4505 77.3499 15.5189C77.2369 16.2359 77.1079 16.1669 76.8879 16.5889C76.7199 16.9285 76.5859 17.284 76.4879 17.65C76.4868 17.6544 76.4868 17.659 76.4878 17.6635C76.4888 17.6679 76.4909 17.672 76.4938 17.6755C76.4967 17.679 76.5004 17.6819 76.5046 17.6837C76.5088 17.6855 76.5134 17.6862 76.5179 17.6859H76.5389C76.5849 17.6849 76.6301 17.6974 76.6689 17.7219C76.6953 17.7491 76.7156 17.7814 76.7289 17.8169C76.7421 17.8523 76.7479 17.8901 76.7459 17.9279V17.9429C76.6615 18.34 76.5031 18.7175 76.2789 19.0559C76.1444 19.3115 75.9605 19.5379 75.7379 19.7219C75.3939 19.9219 75.2869 19.807 75.2379 19.908C75.1889 20.009 74.8379 20.6589 74.7899 20.8359C74.7292 21.0632 74.692 21.2961 74.6789 21.5309V21.5369C74.6787 21.5516 74.6832 21.566 74.6916 21.578C74.7 21.59 74.712 21.5991 74.7259 21.6039C75.4189 21.8759 77.2259 22.5179 77.6619 23.2559L71.5499 25.239C72.4049 25.139 73.3439 25.0219 74.1749 24.9259C75.3139 24.7959 77.1549 24.5899 77.7479 24.5959C78.2596 24.6225 78.7688 24.6843 79.2719 24.7809C79.9879 24.8809 80.6249 24.9019 81.4009 25.0579C81.8224 25.1195 82.2165 25.3031 82.5349 25.5859C82.5689 25.6089 82.7229 25.7349 82.7229 25.7349C83.6669 25.6689 85.1229 25.5759 85.4339 25.5509C85.5909 25.5379 85.9139 25.5199 85.9759 25.5129C88.9179 25.1389 90.5289 23.7309 91.9329 22.8759C93.6263 21.869 95.5288 21.2658 97.4929 21.1129C97.6369 21.1129 97.7779 21.1069 97.9169 21.1069C98.2556 21.1069 98.5786 21.1186 98.8859 21.1419V13.3979L76.8289 13.4389Z"
            fill="#ffffff"></path>
        <path
            d="M33.989 39.9301L35.365 46.5591H45.371L43.986 39.9301H33.989ZM50.189 39.9301L48.829 46.5601H58.32C58.453 46.4141 58.607 46.2491 58.791 46.0601C58.9592 45.8383 59.0372 45.561 59.009 45.2841C59.009 44.9341 58.948 44.56 58.949 44.3C58.9484 44.2424 58.9531 44.1848 58.963 44.1281C59.07 43.5811 60.014 43.2921 60.163 42.7561C60.1752 42.7125 60.1815 42.6674 60.182 42.6221C60.182 42.1611 59.423 42.1041 59.423 41.7431C59.4404 41.6039 59.5072 41.4755 59.611 41.3811C60.026 40.9141 60.63 41.0581 60.629 40.6361C60.6297 40.6221 60.6297 40.608 60.629 40.5941V40.5711C60.6164 40.3491 60.6674 40.1281 60.776 39.9341L50.189 39.9301ZM67.507 39.9301L67.407 39.9751H67.397L67.365 39.9891L67.343 39.9981L67.322 40.0081L67.298 40.0191H67.291C65.8623 40.5634 64.5505 41.3752 63.426 42.4111C63.4206 42.4188 63.4156 42.4268 63.411 42.4351L63.405 42.4461V42.451V42.4571L63.399 42.4661L63.394 42.4741L63.388 42.4851V42.4951V42.5051C63.388 42.5131 63.382 42.5201 63.38 42.5261C63.3766 42.5331 63.374 42.5405 63.372 42.5481C63.352 42.5975 63.352 42.6527 63.372 42.7021C63.3742 42.7073 63.3769 42.7124 63.38 42.7171C63.3826 42.722 63.3856 42.7267 63.389 42.7311L63.394 42.7381C63.4196 42.7688 63.4549 42.7899 63.494 42.7981C63.5107 42.8021 63.5278 42.8041 63.545 42.8041C64.0488 42.612 64.5334 42.3726 64.992 42.0891C67.6517 40.9742 70.5013 40.3825 73.385 40.3461C73.625 40.3461 73.829 40.3541 73.993 40.3671C74.0415 40.3711 74.087 40.3923 74.1214 40.4267C74.1558 40.4611 74.1769 40.5066 74.181 40.5551C74.2254 40.8873 74.2966 41.2154 74.394 41.5361C74.4883 42.1275 74.734 42.6845 75.107 43.1531C75.607 43.6241 75.766 43.9151 75.766 44.3061C75.7462 44.6248 75.6998 44.9412 75.627 45.2521C75.6189 45.2936 75.6149 45.3358 75.615 45.3781C75.615 45.9991 76.43 46.4971 76.453 46.5211H86.029L87.404 39.8931L67.507 39.9301Z"
            fill="#ffffff"></path>
        <path
            d="M48.2281 49.4589L45.3701 63.0789H47.9031L49.0031 57.8639H55.5881L56.0371 55.7249H49.4321L50.3101 51.5799H57.7331L58.1811 49.4589H48.2281ZM59.8581 49.4589L57.0011 63.0789H59.5331L62.3911 49.4589H59.8581ZM74.0991 49.4589L72.1181 58.9919L66.5991 49.4589H64.5141L61.6561 63.0789H64.1701L66.1701 53.5449L71.6701 63.0789H73.7541L76.6111 49.4589H74.0991ZM84.5181 51.9499L85.8431 57.9419H80.7001L84.5181 51.9499ZM83.7181 49.4589L74.7241 63.0789H77.4321L79.4321 59.926H86.2891L86.9801 63.0789H89.4931L86.2331 49.4589H83.7181ZM93.3181 49.4589L90.4611 63.0789H100.125L100.574 60.9379H93.4441L95.8521 49.4589H93.3181ZM105.705 49.809C104.876 50.1207 104.147 50.6523 103.596 51.3469C103.088 52.0111 102.817 52.8258 102.824 53.6619V53.6979C102.794 54.3558 102.994 55.0037 103.39 55.5299C103.76 55.9974 104.237 56.3681 104.782 56.6099C105.478 56.9037 106.191 57.1535 106.918 57.3579C107.553 57.5406 108.048 57.7026 108.403 57.8439C108.733 57.9707 109.035 58.1591 109.294 58.3989C109.408 58.5049 109.498 58.6337 109.559 58.7768C109.62 58.92 109.65 59.0744 109.647 59.2299V59.2449C109.643 59.5405 109.556 59.829 109.397 60.0782C109.239 60.3274 109.013 60.5275 108.747 60.6559C108.008 61.0326 107.184 61.2101 106.356 61.171C105.54 61.1706 104.729 61.0354 103.956 60.7709C103.223 60.5323 102.537 60.1668 101.93 59.6909L100.84 61.676C101.504 62.2071 102.269 62.5976 103.088 62.8239C104.065 63.125 105.081 63.2761 106.103 63.2719C107.178 63.2905 108.247 63.1059 109.254 62.728C110.095 62.4217 110.835 61.8895 111.393 61.1899C111.902 60.5187 112.174 59.6973 112.165 58.8549V58.822C112.194 58.1951 111.995 57.5789 111.607 57.0859C111.235 56.6364 110.761 56.2826 110.224 56.0539C109.539 55.7721 108.838 55.5316 108.124 55.3339C107.45 55.1272 106.938 54.9556 106.589 54.8189C106.258 54.6948 105.956 54.5066 105.698 54.2649C105.581 54.1553 105.488 54.022 105.426 53.874C105.364 53.726 105.333 53.5665 105.337 53.4059V53.3899C105.342 53.0869 105.428 52.7907 105.586 52.5323C105.744 52.2739 105.969 52.0628 106.237 51.921C106.974 51.5167 107.809 51.3249 108.648 51.3669C109.319 51.364 109.987 51.4556 110.632 51.6389C111.238 51.8075 111.814 52.07 112.339 52.4169L113.352 50.4169C112.723 50.0278 112.035 49.7419 111.315 49.5699C110.494 49.3655 109.65 49.2647 108.804 49.2699C107.745 49.2505 106.693 49.4352 105.704 49.814"
            fill="#ffffff"></path>
        <path
            d="M109.082 44.8521L109.016 45.174H109.564L109.287 46.562H109.687L109.965 45.174H110.509L110.575 44.8521H109.082ZM112.37 44.8521L111.534 45.916L111.107 44.8521H110.785L110.443 46.561H110.814L111.019 45.535L111.371 46.38H111.547L112.2 45.546L112 46.562H112.371L112.709 44.853L112.37 44.8521Z"
            fill="#ffffff"></path>
    </g>
    <defs>
        <clipPath id="clip0_289_14517">
            <rect width="113.51" height="63.274" fill="white"></rect>
        </clipPath>
    </defs>
</svg>