<?xml version="1.0" encoding="utf-8"?>
<!-- Generator: Adobe Illustrator 26.0.3, SVG Export Plug-In . SVG Version: 6.00 Build 0)  -->
<svg version="1.1" id="Layer_1" xmlns="http://www.w3.org/2000/svg" xmlns:xlink="http://www.w3.org/1999/xlink" x="0px"
    y="0px" viewBox="0 0 395.7 395.7" style="enable-background:new 0 0 395.7 395.7;" xml:space="preserve">
    <style type="text/css">
        .backhand-0 {
            fill: #87BCDE;
        }
    </style>
    <g>
        <path class="backhand-0" d="M150,369.1c-6.1,5.9-6.2,15.6-0.3,21.7c3,3.1,7,4.6,11,4.6c3.8,0,7.7-1.4,10.7-4.3
		c27.9-27.1,38.3-55.4,41.3-78.3l-30.4-28.2C185.1,305.7,182,337.9,150,369.1z" />
        <path class="backhand-0" d="M215.3,310.1l7.4,6.9l12.2,66c1.4,7.5,8,12.8,15.3,12.8c0.9,0,1.9-0.1,2.9-0.3c8.5-1.6,14.1-9.7,12.5-18.2
		l-13.1-71c-0.6-3.3-2.3-6.3-4.7-8.6l-5.2-4.8L215.3,310.1z" />
        <path class="backhand-0" d="M174.3,186.8c1.2,0.6,2.4,1.2,3.4,1.7L162.1,248c0,0.1-0.1,0.3-0.1,0.4c-1.8,5.6-0.4,12,4.2,16.2l45.2,42
		l27.3-17.3L220.1,272l10.3-30.7c0.5,2.2,1.1,4.4,1.7,6.6c0.9,3,1.9,5.9,3.1,8.8l17.7-9.5c-6-15.7-6.2-34.2-5.8-43.9
		c0.2-4,0.4-6.4,0.5-6.6c0.5-3.9-1.4-7.6-4.5-9.6c-1.2-1.2-2.7-2.2-4.5-2.6l-1.7-0.5c-5.1,3.5-11.2,5.6-17.8,5.6
		c-1.2,0-2.4-0.1-3.5-0.2c-11-1.2-20.1-8.1-24.6-17.5c-0.2,0-0.3,0-0.5-0.1c-1.2-0.3-3.6-1-6.7-2.6c-6.3-3.1-15.5-9.6-23.6-22.6
		l-15.5,12.8C154.6,174.2,165.7,182.4,174.3,186.8z" />
        <path class="backhand-0" d="M267.3,290.2c1.2,0.5,2.5,0.8,3.8,0.8c3.9,0,7.7-2.3,9.3-6.2c2.1-5.1-0.3-11-5.5-13
		c-9.5-3.9-15.8-11.4-20-20.2l-17.6,9.5C243.3,273.4,252.7,284.2,267.3,290.2z" />
        <ellipse class="backhand-0" cx="219.2" cy="158.6" rx="28.1" ry="28.1" />
        <path class="backhand-0" d="M118.4,111l7.1-6.2c3.2,21.9,9.4,38.4,16.8,50.7l15.7-12.9c-6.6-12.1-12.1-29.2-14-53.1c0-0.2-0.1-0.4-0.1-0.6
		l1.5-1.3c12.7-11,33.9-13.7,45.1-12.9l0-0.1c10.6,0.9,22.1-2.6,31.4-10.7c16.8-14.6,20.1-38.2,7.3-52.9
		c-12.7-14.7-36.6-14.8-53.4-0.2c-9.3,8.1-14.5,19-15,29.6l-0.1,0c-0.8,11.2-6.5,31.9-19.1,42.9l-0.3,0.2c-2-2.2-4.9-3.4-8.1-3.2
		c-5.5,0.4-9.6,5.3-9.2,10.8c0.2,2.3,0.4,4.6,0.7,6.8l-10,8.7L118.4,111z M179.6,15.2c14.4-12.5,34.7-12.6,45.3-0.4
		c10.6,12.2,7.6,32.3-6.8,44.8s-34.7,12.6-45.3,0.4C162.2,47.7,165.2,27.6,179.6,15.2z M163.6,56.2c1.2,2.7,2.8,5.3,4.9,7.6
		c2,2.3,4.3,4.3,6.8,5.9c-6.1,0.8-13,2.4-19.5,5.1C159.4,68.6,161.9,62.1,163.6,56.2z" />
    </g>
</svg>