<?xml version="1.0" encoding="utf-8"?>
<!-- Generator: Adobe Illustrator 26.0.3, SVG Export Plug-In . SVG Version: 6.00 Build 0)  -->
<svg version="1.1" id="Calque_1" xmlns="http://www.w3.org/2000/svg" xmlns:xlink="http://www.w3.org/1999/xlink" x="0px"
   y="0px" viewBox="0 0 384.5 384.5" style="enable-background:new 0 0 384.5 384.5;" xml:space="preserve">
   <style type="text/css">
      .french-open-0 {
         fill: #005336;
      }

      .french-open-1 {
         fill: #FFFFFF;
      }

      .french-open-2 {
         fill: #D5622A;
      }
   </style>
   <g>
      <g>
         <path class="french-open-0" d="M384.5,192.2c0,106.2-86.1,192.2-192.2,192.2S0,298.4,0,192.2C0,86.1,86.1,0,192.2,0
			C298.4,0,384.5,86.1,384.5,192.2" />
         <g>
            <path class="french-open-1" d="M192.2,6.9C89.9,6.9,6.9,89.9,6.9,192.3c0,102.4,83,185.4,185.4,185.4c102.4,0,185.4-83,185.4-185.4
				C377.6,89.9,294.6,6.9,192.2,6.9z M192.2,373.1c-99.9,0-180.8-81-180.8-180.8c0-99.9,81-180.8,180.8-180.8
				c99.9,0,180.8,80.9,180.8,180.8C373.1,292.2,292.1,373.1,192.2,373.1z" />
         </g>
         <path class="french-open-1" d="M305.4,192.7c0,62.5-50.7,113.1-113.1,113.1c-62.5,0-113.1-50.6-113.1-113.1c0-62.5,50.7-113.1,113.1-113.1
			C254.7,79.6,305.4,130.2,305.4,192.7" />
         <path class="french-open-1" d="M93.6,286.6l1.5-1.1c2.6,2.8,8.7,8.3,8.7,8.3c4.5,4,4.4,8.3,2,11c-2.7,3-7.9,4.1-12.8-0.3
			c-0.4-0.4-0.9-0.8-1.3-1.3l1.3-1.9c2.8,2.5,6.1,1.4,7.9-0.7c1.5-1.7,1.6-4-1-6.4l-1.4-1.3l-14.8,16.5c-1.3-1.2-2.9-2.8-4.1-3.9
			l15-16.8L93.6,286.6z" />
         <path class="french-open-1" d="M139.5,337.3l-9.4-3.6l-3.7,4.3l-3.8-1.8l18.2-19.5l4.1,1.6l1.3,24.2l1.9,1.9l-0.7,1.3
			c-2.4-0.7-5.8-1.8-7.7-2.5L139.5,337.3z M132.3,331.2l7.1,2.7l-0.2-6.7c0-2.3,0.3-4.4,0.3-4.4l-0.1,0c0,0-1.3,1.8-2.7,3.4
			L132.3,331.2z" />
         <path class="french-open-1"
            d="M185.1,328.6l0.4-1.8c3.5,0.2,11.8,0,11.8,0c5.7,0,8.6,3.7,8.6,7c0,3.1-1.6,6.1-5.8,7.8l7.9,9.7
			c-2.7,0.2-4.9,0.4-7.2,0.5l-6.3-10l0.3-1.7c3.5-0.7,4.9-3.4,4.9-6c0-2-1.4-4.3-4.7-4.3H193l0,22.1l-5.7,0l0-22.5L185.1,328.6z" />
         <path class="french-open-1"
            d="M257.7,338.1c-1.9,0.8-3.5,1.5-5.3,2.3l-9-20.6l-2.5-0.1l-0.3-1.8c2.4-1,4.6-1.9,7-2.9L257.7,338.1z" />
         <path class="french-open-1" d="M290.2,293.3l-3.7-1.4c-0.7,0.5-1.1,0.9-1.8,1.6c-1.2,1.5-2,3.5-0.3,4.9c4.1,3.5,11.1-5.5,17.3-0.1
			c3.6,3,2.4,7.9-0.5,11.3c-1.9,2.2-4.8,4-7,4.7l-1.9-3.3c3-0.9,5.1-2,6.7-3.9c1-1.2,1.5-2.8,0.1-4c-3.9-3.3-11.1,5.2-17.2,0
			c-3.9-3.3-2.6-8.2,0.5-11.8c1.5-1.8,3.3-3.1,5.1-4l4.1,3.9L290.2,293.3z" />
         <path class="french-open-1" d="M33.1,230.9l-2.3-0.4c-0.6-2-2.8-13-3.2-18.3c-0.8-7.6,3.5-12.1,8.4-12.7c4.2-0.5,9,1.9,11.6,8l17.2-15.6
			c0,3.7,0.2,7.4,0.4,10.2L49.1,215l-2.4-0.3c-1.5-5.2-5.4-7.4-8.9-7c-3.1,0.4-6,3.2-5.4,7.9l0.5,4.2l34.1-4.3
			c0.3,1.8,1,5.1,1.5,7.1l-34.1,4.2L33.1,230.9z" />
         <path class="french-open-1" d="M66.8,174.2c-2,11.4-11.4,18.2-22.6,16.2c-12.6-2.2-17.9-13.3-16-23.8c1.9-11.1,9.9-19.5,21.9-17.4
			C61.2,151.2,69.1,161,66.8,174.2 M62.7,172.7c1.3-7.2-2.6-13.6-13.1-15.4c-9.8-1.7-16,3.2-17.2,10.5c-1.3,7.4,2.6,13.5,12.8,15.2
			C54.9,184.8,61.4,180.3,62.7,172.7" />
         <path class="french-open-1" d="M42.2,132.2l-3.2,2.6l-1.7-1.6c1-2.7,2.6-6.7,3.9-9.5l30.9,15.1l1.2-2.5c2.8-5.8,1.2-11.6-1.1-15.6l2.2-1.8
			l7.2,10.4c-3.7,6.2-6.8,13.7-9.6,21.1l-2.3-0.4l0.1-4.3L42.2,132.2z" />
         <path class="french-open-1" d="M108.6,93.1l1.3,2c-2.6,2.2-5.1,4.5-7.7,7.2L92.9,99l-10.5,11.8l4.9,9.3c-1,1.3-2.1,3.1-3,4.6L64.9,86l3-3.5
			L104.6,95L108.6,93.1z M88.6,97.6l-15.7-5.7L72.8,92l7.6,14.8L88.6,97.6z" />
         <path class="french-open-1" d="M122.1,41.8l18.4,33.9l-2.4,1.1l-34.6-11.3l15.1,22.8l-4,3L95.9,62.6l-4.2,0.4l-0.6-2.3
			c1.9-1.4,4.4-3.3,6.3-4.6l31.9,10.2l-10.2-18.6l-4.1,0.3l-0.7-2.2C116.6,44.5,119.9,42.8,122.1,41.8" />
         <path class="french-open-1" d="M153.8,30.7c14-4.1,21.8,3.5,24.4,12.2c2.9,9.5-0.8,20.8-13.6,24.7c0,0-8.6,2.3-15.1,4.6l-10-32.9l-4.1-0.6
			l0-2.4C142.5,33.8,150.1,31.7,153.8,30.7 M161,64.4c9.7-2.9,12.1-11.6,10-18.6c-2.2-7.2-7.3-13.1-18.7-10.4l-6,1.8l8.8,29
			L161,64.4z" />
         <path class="french-open-1" d="M241.2,70.5c-4.8,0.8-11.6,0.3-17.2-1.2c-11.2-3-19.9-10.7-16.4-23.8c3.7-14,15.2-17.2,27.6-13.9
			c4.7,1.2,9.4,3.2,13.9,6l-3.9,9.3l-2.1-0.6l-0.5-5.5c-2.7-2.6-6-4.4-9.4-5.3c-7.5-2-15.3,0.9-18,10.9c-2.5,9.3,2.6,16.7,10.6,18.8
			c2.8,0.7,5.9,0.9,9.2,0.2l1.9-7.3l-5.6-3.9l1.2-2.3l12.6,3.3L241.2,70.5z" />
         <path class="french-open-1" d="M278.3,94.3l-1.9,1.8c-2.5-2.1-5.7-4.7-7.9-6.3l1.3-10.3l-13.5-8.2l-7.7,6.3c-1.6-0.8-3.3-1.6-5-2.3
			l33.9-25.8l4,2.4L276.1,91L278.3,94.3z M270.4,75l2.7-16.5l-0.1-0.1l-13.1,10.2L270.4,75z" />
         <path class="french-open-1"
            d="M304.5,72.6l2.1-1c5.8,5.4,12.7,13.5,12.7,13.5c4.8,5.7,3.8,12.1,0,15.3c-3.3,2.8-8.6,3.4-14.1-0.3l-5.8,22.5
			l-6-8.5l6.5-19.5l2.1-1.1c4.1,3.5,8.6,3.2,11.3,0.9c2.4-2,3.4-6.2,0.3-9.9l-2.9-2.9l-26.1,22.4l-5.1-5.2l26.1-22.3L304.5,72.6z" />
         <path class="french-open-1" d="M333.4,108.4l2.3-0.3c3,5.3,5.6,9.8,8.5,16.7c3,6.8,0.2,12.6-4.3,14.7c-3.9,1.8-9.2,0.8-13.5-4.2l-11.8,20.2
			c-0.9-3.2-3.4-9.9-3.4-9.9l11.7-17l2.4-0.4c2.9,4.5,7.3,5.5,10.6,4c2.9-1.3,5-5,3-9.3l-1.7-3.9l-31.5,14.4
			c-1.2-2.1-2.6-4.5-3.7-6.5l31.3-14.2L333.4,108.4z" />
         <path class="french-open-1" d="M318.4,175c-1.2-11.5,6-20.6,17.3-21.8c12.8-1.3,20.8,7.9,21.9,18.5c1.2,11.2-4.1,21.5-16.3,22.7
			C330,195.7,319.8,188.4,318.4,175 M322.7,175.4c0.8,7.3,6.2,12.3,16.8,11.2c9.9-1,14.5-7.5,13.7-14.8c-0.8-7.5-6.2-12.3-16.4-11.2
			C326.9,161.6,321.9,167.8,322.7,175.4" />
         <path class="french-open-1" d="M344.5,224.5l6.7-1.8c0.5-1.1,0.9-2.5,1.1-3.8c0.6-3.4-0.1-7.2-3.9-7.8c-6.5-1-11.6,16.6-21.6,15
			c-8.1-1.3-9.7-8.8-8.5-16c0.7-4.5,3-9.3,5.2-11.6l4.5,2.6c-2.9,3.1-4.8,5.6-5.6,10.5c-0.5,3.1,0.6,6.1,3.8,6.7
			c6.1,1,11.6-16.4,22.1-14.7c7.2,1.2,9.6,8.6,8.3,16.3c-0.5,3.3-1.6,6.6-3,9l-9.4-2.6L344.5,224.5z" />
      </g>
      <g>
         <g>
            <path class="french-open-2" d="M258.2,106.5l-65.3,52c2.2-7.9,1.1-18.1-5.1-25.3l49.4-39.3c-3.5-1.6-7.1-3-10.8-4.2l-46.5,37
				c-3.5-1.9-8-3.4-17.4-3.4h-15.3l49.1-39.1c-1.4-0.1-2.7-0.1-4.1-0.1c-60,0-108.6,48.6-108.6,108.6c0,24.6,8.2,47.3,22,65.5v-29.3
				l40.1-31.9l0-59.8h8.8c12.4,0,17.7,7.6,17.7,13.8c0,8.7-6.5,15.5-19.6,17.4l-1.4,5.8l17.8,33.7l-63.4,50.4
				c6.7,8.9,14.8,16.7,23.9,23.1V252l43.7-34.7h22.1c2.5,15,13.3,24,28.2,24c3.7,0,7.6-0.6,11.9-1.7v-18.6l-16.8-4.9l1.3-8.4h35v41
				c-11.6,4.2-23.4,7.1-35,7.1c-14.7,0-27.7-4.6-37.4-16.4l-52.9,42.1c17.7,12.5,39.3,19.9,62.7,19.9c60,0,108.6-48.6,108.6-108.6
				C300.8,157.5,284.1,126.3,258.2,106.5z M251.2,192.1h-7.5l-4.3-16.4c-5.9-2.5-11.3-3.7-16.4-3.7c-19.1,0-29.5,17.3-29.1,40
				l-15.5-29.9c9.6-16.1,26.8-24,45.5-24c9.9,0,20.3,2.3,29.9,6.8L251.2,192.1z" />
         </g>
      </g>
   </g>
</svg>