<?xml version="1.0" encoding="utf-8"?>
<!-- Generator: Adobe Illustrator 26.0.3, SVG Export Plug-In . SVG Version: 6.00 Build 0)  -->
<svg version="1.1" id="Layer_1" xmlns="http://www.w3.org/2000/svg" xmlns:xlink="http://www.w3.org/1999/xlink" x="0px"
    y="0px" viewBox="0 0 800 800" style="enable-background:new 0 0 800 800;" xml:space="preserve">
    <style type="text/css">
        .height-circle {
            fill: #C1C1C1;
        }

        .height-0 {
            fill: #B4E66E;
        }

        .height-1 {
            fill: #56742e;
        }

        .height-2 {
            fill: #71993d;
        }

        .height-3 {
            fill: #F7DECE;
        }

        .height-4 {
            fill: #7D8491;
        }

        .height-5 {
            fill: #B4DC7F;
        }

        .height-6 {
            fill: #532919;
        }

        .height-7 {
            fill: #EEC2AD;
        }

        .height-8 {
            fill: #C1C1C1;
        }
    </style>
    <g>
        <path class="height-0"
            d="M165.5,0H27.6C12.4,0,0,12.3,0,27.6v744.8C0,787.6,12.4,800,27.6,800h137.9c15.2,0,27.6-12.4,27.6-27.6V27.6
		C193.1,12.3,180.8,0,165.5,0z M75.9,75.9c-11.4,0-20.7-9.3-20.7-20.7s9.3-20.7,20.7-20.7s20.7,9.3,20.7,20.7S87.3,75.9,75.9,75.9z" />
        <g>
            <path class="height-1"
                d="M124.1,400c0,7.6,6.2,13.8,13.8,13.8h55.2v-27.6h-55.2C130.3,386.2,124.1,392.4,124.1,400z" />
            <path class="height-1"
                d="M124.1,289.7c0,7.6,6.2,13.8,13.8,13.8h55.2v-27.6h-55.2C130.3,275.9,124.1,282,124.1,289.7z" />
        </g>
        <g>
            <path class="height-2"
                d="M151.7,344.8c0,7.6,6.2,13.8,13.8,13.8h27.6V331h-27.6C157.9,331,151.7,337.2,151.7,344.8z" />
            <path class="height-2"
                d="M151.7,455.2c0,7.6,6.2,13.8,13.8,13.8h27.6v-27.6h-27.6C157.9,441.4,151.7,447.6,151.7,455.2z" />
        </g>
        <g>
            <path class="height-1"
                d="M124.1,179.3c0,7.6,6.2,13.8,13.8,13.8h55.2v-27.6h-55.2C130.3,165.5,124.1,171.7,124.1,179.3z" />
            <path class="height-1" d="M137.9,55.2c-7.6,0-13.8,6.2-13.8,13.8s6.2,13.8,13.8,13.8h55.2V55.2H137.9z" />
        </g>
        <g>
            <path class="height-2"
                d="M151.7,124.1c0,7.6,6.2,13.8,13.8,13.8h27.6v-27.6h-27.6C157.9,110.3,151.7,116.5,151.7,124.1z" />
            <path class="height-2"
                d="M151.7,234.5c0,7.6,6.2,13.8,13.8,13.8h27.6v-27.6h-27.6C157.9,220.7,151.7,226.9,151.7,234.5z" />
        </g>
        <g>
            <path class="height-1"
                d="M124.1,620.7c0,7.6,6.2,13.8,13.8,13.8h55.2v-27.6h-55.2C130.3,606.9,124.1,613.1,124.1,620.7z" />
            <path class="height-1"
                d="M124.1,731c0,7.6,6.2,13.8,13.8,13.8h55.2v-27.6h-55.2C130.3,717.2,124.1,723.4,124.1,731z" />
            <path class="height-1"
                d="M124.1,510.3c0,7.6,6.2,13.8,13.8,13.8h55.2v-27.6h-55.2C130.3,496.6,124.1,502.7,124.1,510.3z" />
        </g>
        <g>
            <path class="height-2"
                d="M151.7,565.5c0,7.6,6.2,13.8,13.8,13.8h27.6v-27.6h-27.6C157.9,551.7,151.7,557.9,151.7,565.5z" />
            <path class="height-2"
                d="M151.7,675.9c0,7.6,6.2,13.8,13.8,13.8h27.6v-27.6h-27.6C157.9,662.1,151.7,668.2,151.7,675.9z" />
            <path class="height-2" d="M27.6,772.4V27.6C27.6,12.3,39.9,0,55.2,0H27.6C12.4,0,0,12.3,0,27.6v744.8C0,787.6,12.4,800,27.6,800h27.6
			C39.9,800,27.6,787.6,27.6,772.4z" />
        </g>
    </g>
    <g>
        <path class="height-3" d="M342.6,535.4c-4.7,3.2-10.1-0.4-12.7-2.6c-7.5-6.2-15-22.6-12-42.2c3-19.9,3.9-43.1,13.3-81.6
		c1.1-4.5-1.4-54.7,4.2-89.3c1.5-9.3,18.9-21,29.5-20.8c10.6,0.2,5.2,18.6,5.4,21.7c2.4,33.2-6.9,84.4-7.8,91.3
		c-5.5,38.6-20.4,55.9-15.3,81.4c2.7,13.4,3,25.5-4.8,26.5C342.4,527.1,344.3,534.3,342.6,535.4L342.6,535.4z M537.7,535.4
		c4.7,3.2,10.1-0.4,12.7-2.6c7.5-6.2,15-22.6,12-42.2c-3-19.9-3.9-43.1-13.3-81.6c-1.1-4.5,1.4-54.7-4.2-89.3
		c-1.5-9.3-18.9-21-29.5-20.8c-10.6,0.2-5.2,18.6-5.4,21.7c-2.4,33.2,6.9,84.4,7.8,91.3c5.5,38.6,20.4,55.9,15.3,81.4
		c-2.7,13.4-3,25.5,4.8,26.5C538,527.1,536,534.3,537.7,535.4z" />
        <path class="height-4"
            d="M510.6,617.5c0.4-60.4,0.3-128.2,0.3-128.2H368.9c0,0,0.7,73.9,2.3,127.4c1.3,42.2,7.5,122.1,1.9,164.6
		c-1.3,9.4,54.9,18.5,54.1-2.5c-1.5-38.8,5-124.7,6.2-144.1c0.7-10.8,4.8-45.9,6.5-72.1c0.2-0.4,5.6-0.4,5.8,0
		c1.8,26.3,5.9,61.4,6.5,72.1c1.2,19.5,7.7,105.3,6.2,144.1c-0.8,20.9,55.3,11.9,54.1,2.5C507,738.8,510.5,624.4,510.6,617.5z" />
        <path class="height-5" d="M526.3,277.2c-13.9-16.7-86.1-28.6-86.1-28.6s-72.8,11.8-86.7,28.6c-16.9,20.3-25.7,54.7-25.7,54.7l35.2,6.3
		c0,0,8.9,31.8,8.9,62.1S364,504.9,364,504.9h152.5c0,0-8.5-75.7-8.5-104.6c0-28.9,9.5-62.1,9.5-62.1l34.5-6.3
		C551.9,331.9,543.1,297.5,526.3,277.2z" />
        <path class="height-6" d="M464.7,106.8c-11.6-3.8-39-2.7-45.9,6.2c-17.8,0.3-38.7,16.4-41.4,37.7c-2.7,21,3.3,30.8,5.5,46.6
		c2.4,17.9,12.5,23.6,20.5,26c11.6,15.3,23.9,14.6,44.5,14.6c40.3,0,59.6-27,61.3-72.9C510.2,137.3,493.9,116.3,464.7,106.8
		L464.7,106.8z" />
        <path class="height-3" d="M420.6,226.4v34.6c0,9.5,9.6,17.3,21.5,17.3c11.9,0,21.5-7.7,21.5-17.3v-34.6H420.6z" />
        <path class="height-7" d="M420.6,247.8c7.8,4.9,23.7,11,43-0.6v-20.9h-43V247.8z" />
        <path class="height-3" d="M487.7,167c-3.9-5.4-8.9-9.8-19.9-11.3c4.1,1.9,8,8.4,8.6,12c0.5,3.6,1,6.5-2.2,2.9
		c-13-14.4-27.2-8.7-41.3-17.5c-9.8-6.2-12.8-13-12.8-13s-1.2,9.1-16.1,18.3c-4.3,2.7-9.5,8.7-12.3,17.5c-2.1,6.3-1.4,12-1.4,21.6
		c0,28.2,23.2,51.9,51.9,51.9s51.9-23.9,51.9-51.9C494,180,492.2,173.1,487.7,167z" />
        <path class="height-8"
            d="M359,798.4c-10.8-1-3.7-13.5,1.2-17.7c5.4-4.7,14.2-8.7,18.5-16.8c4.9-9,28.3-7.8,33.2-0.5
		c8.8,13.1,12.7,3.5,15.3,9.6c4.1,9.7,1,25.3,1,25.3H359L359,798.4z M526.2,798.4c10.8-1,3.7-13.5-1.2-17.7
		c-5.4-4.7-14.2-8.7-18.5-16.8c-4.9-9-28.3-7.8-33.2-0.5c-8.8,13.1-12.7,3.5-15.3,9.6c-4.1,9.7-1,25.3-1,25.3H526.2L526.2,798.4z" />
    </g>
    <g id="Layer_2">
        <circle class="height-circle" cx="246.1" cy="48.5" r="22" />
        <circle class="height-circle" cx="339.5" cy="48.5" r="22" />
        <circle class="height-circle" cx="432.8" cy="49.7" r="22" />
        <circle class="height-circle" cx="522.7" cy="49.7" r="22" />
        <circle class="height-circle" cx="612.5" cy="49.7" r="22" />
    </g>
</svg>