<svg xmlns="http://www.w3.org/2000/svg" viewBox="0 0 1879.83 1601.8"><defs><style>.cls-1{fill:#b9d613;}.cls-1,.cls-6{stroke:#2f3032;stroke-miterlimit:10;stroke-width:80px;}.cls-2{fill:#f7f7f7;}.cls-3,.cls-7{fill:#fff;}.cls-3{opacity:0.12;}.cls-4,.cls-5{fill:#2b2b2b;}.cls-4{opacity:0.18;}.cls-5{opacity:0.11;}.cls-6{fill:none;}.cls-8{fill:#dbdbdb;}.cls-9{fill:#2f3032;}</style></defs><g id="Layer_1" data-name="Layer 1"><g id="tennis_ball" data-name="tennis ball"><path id="Path_85" data-name="Path 85" class="cls-1" d="M1535.69,1332.59c-277.28,315.76-758,347-1073.79,69.68s-347-758-69.69-1073.79,757.92-347,1073.7-69.77S1812.94,1016.76,1535.69,1332.59Z" transform="translate(-20.9 -29.64)"/><path id="Path_86" data-name="Path 86" class="cls-2" d="M1508.78,356.48a738.84,738.84,0,0,0-67.84-69.11C1151.88,476,777.25,472.63,490.28,278.83a714.14,714.14,0,0,0-69.84,67.46l3.24,2.12c325.42,225.68,755.25,229.47,1083,9.55Zm-9.85,955.07c-319.55-166.45-705.06-138.82-996.27,71.4l-5.43,3.93a725.9,725.9,0,0,0,82.13,59.46c253-170.3,577.81-193.71,853.73-61.53a749.9,749.9,0,0,0,72.21-70Z" transform="translate(-20.9 -29.64)"/><path class="cls-3" d="M1101.72,69.83c182,51.75,223.35,88.18,221.79,113.06C1320,238.29,1100.41,289,904,249.07,809.28,229.8,678.1,180.91,682.49,141.91,685.56,114.54,756.56,81.52,1101.72,69.83Z" transform="translate(-20.9 -29.64)"/><path class="cls-4" d="M1495,875c172,174.94,170.64,389.4-.86,539.06-21.83,19-217.21,183.55-551,177.23-224.36-4.25-415.72-83.43-522.09-185.92-160.92-155.06-137.79-373.61,64.76-538.9,79.59,30,247.82,84,477.06,89.68C1221.75,962.51,1414,903.65,1495,875Z" transform="translate(-20.9 -29.64)"/><path class="cls-5" d="M1555.35,395.39c196.87,291.82,195.16,649.69-1.39,899.57-25,31.8-248.93,306.46-631.23,296.16-257-6.93-476.12-138.91-597.87-309.86-184.21-258.64-157.55-623.37,74.57-899.35,91.15,49.92,283.81,140,546.38,149.31C1242.27,541.7,1462.49,443.33,1555.35,395.39Z" transform="translate(-20.9 -29.64)"/><path class="cls-3" d="M1060.77,108.64c106.53,20.49,130.76,34.9,129.86,44.73-2,21.89-130.57,41.86-245.52,26-55.47-7.64-132.27-27-129.72-42.4C817.19,126.19,858.74,113.16,1060.77,108.64Z" transform="translate(-20.9 -29.64)"/><path id="Path_85-2" data-name="Path 85" class="cls-6" d="M1543,1332.6c-277.28,315.76-758,347-1073.79,69.68s-347-758-69.69-1073.79,757.92-347,1073.69-69.77S1820.24,1016.77,1543,1332.6Z" transform="translate(-20.9 -29.64)"/></g><path class="cls-7" d="M1730.6,1157.51a5468.16,5468.16,0,0,0-1540.5-2.2c-8.61,0-54.44-.82-91.42-32.83-23.38-20.24-37.82-48.18-37.78-79L61.51,615C61.6,553.35,119.59,503.44,191,503.54a3889.55,3889.55,0,0,0,776.52,77.94,3888.74,3888.74,0,0,0,764-75.74c8.62,0,54.44.83,91.42,32.84,23.38,20.24,37.82,48.17,37.78,79l-.61,428.45C1860,1107.71,1802,1157.61,1730.6,1157.51Z" transform="translate(-20.9 -29.64)"/><g id="Layer_2" data-name="Layer 2"><path class="cls-8" d="M120.17,1120.19l1701.29,2.43S983.63,859.65,120.17,1120.19Z" transform="translate(-20.9 -29.64)"/></g><path class="cls-6" d="M1730.6,1157.51a5468.16,5468.16,0,0,0-1540.5-2.2c-8.61,0-54.44-.82-91.42-32.83-23.38-20.24-37.82-48.18-37.78-79L61.51,615C61.6,553.35,119.59,503.44,191,503.54a3889.55,3889.55,0,0,0,776.52,77.94,3888.74,3888.74,0,0,0,764-75.74c8.62,0,54.44.83,91.42,32.84,23.38,20.24,37.82,48.17,37.78,79l-.61,428.45C1860,1107.71,1802,1157.61,1730.6,1157.51Z" transform="translate(-20.9 -29.64)"/></g><g id="Layer_3" data-name="Layer 3"><path class="cls-9" d="M243.77,707.48q-14.33-1.44-28.63-3,0-36.31.05-72.63,56.48,9.14,113.14,17,.07,33.32.16,66.63-16-1.43-31.93-2.89.26,150.84.5,301.68-26.62,3.53-53.22,7.28Q243.81,864.53,243.77,707.48Z" transform="translate(-20.9 -29.64)"/><path class="cls-9" d="M472.09,666.13q.14,30.27.26,60.53-27.92-1.9-55.82-4,.15,36.74.28,73.46,28.29.76,56.59,1.45.12,31.13.26,62.25-28.31.38-56.61.8.13,38.31.28,76.61,28.13-1.82,56.26-3.47.14,30.26.26,60.53-58.05,5.6-116,12.38l-1-354Q414.4,660.06,472.09,666.13Z" transform="translate(-20.9 -29.64)"/><path class="cls-9" d="M506.52,991.32q-.7-160.94-1.4-321.87,35,3.39,70,6.24Q591.5,744,608.6,812.08L608,678.25q34.08,2.49,68.19,4.58l1.11,296.36q-37.08,2-74.13,4.54-16.82-67.15-32.94-134.47.3,68.4.61,136.8Q538.68,988.52,506.52,991.32Z" transform="translate(-20.9 -29.64)"/><path class="cls-9" d="M713.76,977.35q-.5-146.24-1-292.48,39.38,2,78.78,3.44,18.28,62.91,37,125.69-.09-62.26-.17-124.53,37.92,1,75.86,1.5,0,140.56-.08,281.12-41.1.4-82.21,1.39-18.36-62.46-36.34-125,.15,63,.28,126Q749.83,975.71,713.76,977.35Z" transform="translate(-20.9 -29.64)"/><path class="cls-9" d="M944.72,691.28q41.64.09,83.27-.44-.43,140.85-.89,281.68-41.35-.6-82.73-.62Q944.55,831.59,944.72,691.28Z" transform="translate(-20.9 -29.64)"/><path class="cls-9" d="M1066.58,920.7q32.6.52,65.18,1.26,7.59-1.71,10.28-7.71l.24-46.26a27.68,27.68,0,0,0-2.42-6.28,8.48,8.48,0,0,0-5.1-4l-41.43-.28a21.64,21.64,0,0,1-11.14-2.87,26.39,26.39,0,0,1-8.2-7.69,37.83,37.83,0,0,1-5.24-10.84,43.07,43.07,0,0,1-1.78-12.69q.21-52.61.41-105.21c0-7.71,3.14-14.35,9-20,6.33-6,17.8-9.17,26.29-8.91q57.72-1.77,115.37-4.75l-.33,54.74q-32.29,1-64.6,1.87a14.12,14.12,0,0,0-8.93,9.32l-.22,42.1c.26,5.56,3.36,9.08,9.26,10.56l43-.36q6.93-.08,11,3.76a24.7,24.7,0,0,1,6.19,9.44,53.61,53.61,0,0,1,2.94,11.63,73.56,73.56,0,0,1,.79,10.29l-.67,110.25a27.81,27.81,0,0,1-2.42,10.95,35,35,0,0,1-6.3,9.77,29.64,29.64,0,0,1-8.88,6.71,19.77,19.77,0,0,1-9.76,2.22q-61.35-2.91-122.75-4.44Z" transform="translate(-20.9 -29.64)"/><path class="cls-9" d="M1415.17,971.14q-3.3,9.76-8.89,14.37a22.88,22.88,0,0,1-13,5.19,95.25,95.25,0,0,1-16-.16q-62.44-5.38-125-9.32l1.92-298.79q63.42-3.95,126.74-9.36a62.75,62.75,0,0,1,13.21.3,42,42,0,0,1,12.69,3.52,26.86,26.86,0,0,1,9.51,7.26,16.55,16.55,0,0,1,3.73,11q-.78,124.32-1.58,248.65Q1418.48,961.36,1415.17,971.14Zm-91.41-236.58q-.66,97.31-1.3,194.6,15.24.72,30.47,1.52.66-98.8,1.31-197.62Q1339,733.84,1323.76,734.56Z" transform="translate(-20.9 -29.64)"/><path class="cls-9" d="M1513.8,659.63q-.75,140.54-1.49,281.07,26.48,2,52.94,4.1-.13,33-.28,65.92-57.3-7.25-114.73-13.24l2-331.16Q1483,663.14,1513.8,659.63Z" transform="translate(-20.9 -29.64)"/><path class="cls-9" d="M1693.85,635.38q0,36.32,0,72.62-22.71,2.16-45.43,4.24l-.18,82.1q23.07-.63,46.13-1.29,0,37.37,0,74.72-23.12-.69-46.24-1.35-.09,42.8-.19,85.59,23.06,2.18,46.08,4.46,0,36.3-.05,72.61-50.2-7.81-100.54-14.64.66-182.41,1.33-364.83Q1644.32,642.95,1693.85,635.38Z" transform="translate(-20.9 -29.64)"/></g></svg>