<?xml version="1.0" encoding="utf-8"?>
<!-- Generator: Adobe Illustrator 26.0.3, SVG Export Plug-In . SVG Version: 6.00 Build 0)  -->
<svg version="1.1" id="Layer_1" xmlns="http://www.w3.org/2000/svg" xmlns:xlink="http://www.w3.org/1999/xlink" x="0px"
    y="0px" viewBox="0 0 800 800" style="enable-background:new 0 0 800 800;" xml:space="preserve">
    <style type="text/css">
        .turned-pro-0 {
            fill: #C7E755;
        }

        .turned-pro-1 {
            fill: #FFFFFF;
        }

        .turned-pro-2 {
            fill: #D0D0D0;
        }

        .turned-pro-3 {
            fill: #FF717F;
        }

        .turned-pro-4 {
            fill: #4D4F59;
        }

        .turned-pro-5 {
            fill: #5F606C;
        }
    </style>
    <ellipse class="turned-pro-0" cx="146.7" cy="146.7" rx="146.7" ry="146.7" />
    <g>
        <path class="turned-pro-1" d="M114.7,178.7C84,146.7,41.3,132,0,134.7v16c37.3-2.7,74.7,10.7,102.7,40c28,28,41.3,66.7,40,102.7h16
		C161.3,252,146.7,209.4,114.7,178.7" />
        <path class="turned-pro-1" d="M293.3,142.7c-37.3,1.3-74.7-10.7-102.7-40c-28-28-41.3-66.7-40-102.7h-16c-1.3,41.3,13.3,82.7,44,114.7
		c32,32,73.3,46.7,114.7,44V142.7" />
    </g>
    <path class="turned-pro-2" d="M677.3,437.4l13.3-13.3L660,393.4l53.3-53.3l20,20l13.3-13.3l-20-20l50.7-50.7L764,262.7l-50.7,50.7l-42.7-42.7
	l53.3-53.3l41.3,41.3l13.3-13.3L737.3,204l33.3-33.3l-13.3-13.3L724,190.7l-41.3-44l46.7-46.7L716,86.7l-46.7,46.7l-42.7-42.7
	L660,57.3L646.6,44l-33.3,33.3L572,36l-13.3,13.3L600,90.7L546.6,144L504,101.3l50.7-50.7l-13.3-13.3L490.6,88l-20-20l-13.3,13.3
	l20,20L424,154.7L393.3,124L380,137.4l30.7,30.7l-53.3,53.3l-20-20L324,214.7l20,20l-50.7,50.7l13.3,13.3l50.7-50.7l42.7,42.7
	l-53.3,53.3l-41.3-41.3L292,316l41.3,41.3L300,390.7l13.3,13.3l33.3-33.3l42.7,42.7l-46.7,46.7l13.3,13.3l46.7-46.7l42.7,42.7
	L412,502.7l13.3,13.3l33.3-33.3l41.3,41.3l13.3-13.3L472,469.4l53.3-53.3l42.7,42.7l-50.7,50.7l13.3,13.3l49.3-50.7l20,20l13.3-13.3
	l-20-20l53.3-53.3L677.3,437.4 M700,326.7l-53.3,53.3L604,337.4l53.3-53.3L700,326.7 M524,390.7l-42.7-42.7l53.3-53.3l42.7,42.7
	L524,390.7 M478.6,238.7l42.7,42.7L468,334.7L425.3,292L478.6,238.7 M545.3,172l42.7,42.7L534.6,268L492,225.4L545.3,172 M548,281.4
	l53.3-53.3l42.7,42.7L590.6,324L548,281.4 M710.6,204l-53.3,53.3l-42.7-42.7l53.3-53.3L710.6,204 M612,105.3l42.7,42.7l-53.3,53.3
	l-41.3-44L612,105.3 M489.3,116l42.7,42.7L478.6,212L436,169.4L489.3,116 M369.3,236l53.3-53.3l42.7,42.7L412,278.7L369.3,236
	 M358.6,358.7l53.3-53.3l42.7,42.7l-53.3,53.3L358.6,358.7 M456,457.4l-42.7-42.7l53.3-53.3l42.7,42.7L456,457.4 M580,446.7
	l-42.7-42.7l53.3-53.3l42.7,42.7L580,446.7" />
    <g>
        <path class="turned-pro-3" d="M742.6,73.3C652-17.3,484,1.3,369.3,116S236,397.4,326.6,489.4c92,90.7,258.7,72,373.3-42.7
		S833.3,165.4,742.6,73.3 M360,456.1c-77.3-77.3-61.3-217.4,36-314.7s237.3-113.4,314.6-36s61.3,217.4-36,314.7S436,533.4,360,456.1
		" />
        <path class="turned-pro-3" d="M481.3,545.4c9.3,0-77.3-30.7-77.3-30.7s-109.3,49.3-130.7,28c-21.3-21.3,28-130.7,28-130.7
		s-30.7-86.7-32-77.3c-5.3,86.7-18.7,172-60,220c-5.3,6.7-13.3,13.3-13.3,13.3l25.3,25.3l25.3,25.3c0,0,6.7-8,13.3-13.3
		C309.3,565.4,394.6,550.7,481.3,545.4" />
    </g>
    <g>
        <path class="turned-pro-4" d="M20.4,729.7l181.9-182l65.1,65.1l-182,182L20.4,729.7z" />
        <path class="turned-pro-4" d="M106.7,642.8l45.3,84l28-28l-45.3-85.3L106.7,642.8z" />
        <path class="turned-pro-4" d="M49.3,700.1l45.3,85.3l28-29.3l-45.3-84L49.3,700.1z" />
    </g>
    <g>
        <path class="turned-pro-5" d="M20,729.4l64,65.3l10.7-9.3l-45.3-85.3L20,729.4z" />
        <path class="turned-pro-5" d="M77.3,672.1l45.3,84l29.3-29.3l-45.3-84L77.3,672.1z" />
        <path class="turned-pro-5" d="M202.7,546.7l-9.3,9.3l44,85.3l29.3-29.3L202.7,546.7z" />
    </g>
    <path class="turned-pro-4" d="M164,585.4l45.3,84l28-28l-44-85.3L164,585.4z" />
    <path class="turned-pro-5" d="M134.7,613.4l45.3,85.3l29.3-29.3l-45.3-84L134.7,613.4z" />
    <g>
        <path class="turned-pro-4" d="M14.1,723.6l20.7-20.7l76.4,76.4L90.4,800L14.1,723.6z" />
        <path class="turned-pro-4" d="M175.6,562.3l20.7-20.7l76.3,76.4l-20.7,20.7L175.6,562.3z" />
    </g>
    <g>
        <g>
            <path fill="white" d="M390.2,610v170.4h-32.1V647.8l-20.7,7.9v-34.1l25.4-11.5H390.2z" />
            <path fill="white" d="M444,780.4l37-84.6l5.7,4.2c-2,3.7-5,6.3-9,8s-8.6,2.5-13.8,2.5c-13,0-23.4-4.5-31.3-13.7c-7.9-9.1-11.9-21.2-11.9-36.3
			v-0.1c0-16.6,4.4-29.4,13.1-38.5c8.7-9.1,21-13.7,36.9-13.7c15.9,0,28.1,4.6,36.8,13.8c8.7,9.2,13,22.2,13,39v0.1
			c0,7-1.2,14.4-3.5,22.3c-2.3,7.9-5.1,15.9-8.5,24l-30.5,73H444z M470.6,680.5c5.6,0,10-1.8,13.1-5.4c3.1-3.6,4.6-8.8,4.6-15.4
			v-0.1c0-6.4-1.5-11.3-4.6-14.8c-3.1-3.5-7.4-5.2-13.1-5.2c-5.7,0-10.1,1.8-13.2,5.3c-3.1,3.5-4.6,8.5-4.6,14.9v0.1
			c0,6.6,1.5,11.8,4.6,15.4C460.5,678.7,464.9,680.5,470.6,680.5z" />
            <path fill="white" d="M640.1,610v21.3l-38.2,149.1h-34.8l37-139.5h-29.3v25.7h-32.1V610H640.1z" />
            <path d="M719.2,782.2c-17,0-29.7-4.4-38.2-13.1c-8.5-8.7-12.8-20.5-12.8-35.3v-77.5c0-15.1,4.3-26.9,12.9-35.5
			c8.6-8.6,21.3-12.9,38.1-12.9c16.9,0,29.6,4.3,38.1,12.8s12.8,20.4,12.8,35.6v77.5c0,15.1-4.3,26.9-12.9,35.5
			C748.7,777.9,736,782.2,719.2,782.2z M719.2,751.3c6.7,0,11.5-2.3,14.5-6.9s4.4-10.8,4.4-18.8v-61.1c0-8-1.5-14.3-4.4-18.9
			c-2.9-4.5-7.8-6.8-14.5-6.8c-6.6,0-11.4,2.3-14.4,6.8c-3,4.5-4.5,10.8-4.5,18.9v61.1c0,8,1.5,14.2,4.5,18.8
			C707.7,749,712.6,751.3,719.2,751.3z" fill="white" />
        </g>
    </g>
</svg>