<?xml version="1.0" encoding="utf-8"?>
<!-- Generator: Adobe Illustrator 26.0.3, SVG Export Plug-In . SVG Version: 6.00 Build 0)  -->
<svg version="1.1" id="svg2" sodipodi:docname="A.svg" xmlns:cc="http://creativecommons.org/ns#"
    xmlns:dc="http://purl.org/dc/elements/1.1/" xmlns:inkscape="http://www.inkscape.org/namespaces/inkscape"
    xmlns:rdf="http://www.w3.org/1999/02/22-rdf-syntax-ns#"
    xmlns:sodipodi="http://sodipodi.sourceforge.net/DTD/sodipodi-0.dtd" xmlns:svg="http://www.w3.org/2000/svg"
    xmlns="http://www.w3.org/2000/svg" xmlns:xlink="http://www.w3.org/1999/xlink" x="0px" y="0px"
    viewBox="0 0 963.6 647" style="enable-background:new 0 0 963.6 647;" xml:space="preserve">
    <style type="text/css">
        .french-open-0 {
            fill: #FFD400;
        }

        .french-open-1 {
            fill: #FFFFFF;
        }
    </style>
    <sodipodi:namedview bordercolor="#666666" borderopacity="1.0" fit-margin-bottom="0" fit-margin-left="0"
        fit-margin-right="0" fit-margin-top="0" id="base" inkscape:current-layer="layer1" inkscape:cx="502.82683"
        inkscape:cy="458.67625" inkscape:document-units="px" inkscape:pageopacity="0.0" inkscape:pageshadow="2"
        inkscape:window-height="857" inkscape:window-maximized="0" inkscape:window-width="904" inkscape:window-x="1008"
        inkscape:window-y="14" inkscape:zoom="0.90234375" pagecolor="#ffffff" showgrid="false">
    </sodipodi:namedview>
    <g id="layer1" transform="translate(-97.142872,-413.77251)" inkscape:groupmode="layer" inkscape:label="Layer 1">
        <g id="g5" transform="matrix(8.1885983,0,0,8.1885983,96.000641,413.77251)">
            <g id="g7">
                <path id="path9" inkscape:connector-curvature="0" class="french-open-0" d="M38.4,31.7c28.7,4,30.6,6.9,37.7,6.9c5.5,0,10.2-1.7,13.7-4.5
				C78.8,31.2,55.8,30.6,38.4,31.7L38.4,31.7z" />
            </g>
            <path id="path11" inkscape:connector-curvature="0" class="french-open-0" d="M94.2,9.9c-27.8-2-54.4,2.5-78.3,12.5
			c29.2,1.7,51,4.2,75.9,9.5c3-3.5,4.8-7.8,4.8-12.7C96.6,15.8,95.8,12.5,94.2,9.9L94.2,9.9z" />
            <path id="path13" inkscape:connector-curvature="0" class="french-open-0" d="M76.6,0C61.9,0,42.8,5.5,27.9,11c20.2-4,45.4-4.8,64.5-3.6
			C89.5,3.8,85,0,76.6,0z" />
        </g>
        <g id="g17" transform="matrix(8.1885983,0,0,8.1885983,96.000641,413.77251)">
            <g id="g19">
                <path id="path21" inkscape:connector-curvature="0" class="french-open-1" d="M19.3,66.2c1.3,0.7,3.6,1.3,5.6,1.3c1.7,0,2.7-0.7,2.8-1.5
				c0.1-0.9-0.5-1.5-2.3-2.4c-2.3-1-4-2.7-3.7-4.9c0.5-3.8,4.5-6.4,9.8-6.4c2.4,0,3.8,0.4,4.8,0.8l-1.3,4.1c-0.9-0.4-2.5-1-4.3-1
				c-1.6,0-2.8,0.7-2.9,1.6c-0.1,0.8,0.7,1.3,2.3,2.1c2.1,1,4.3,2.5,4,5c-0.5,4.3-4.8,6.6-10.2,6.6c-2.7,0-4.4-0.5-5.8-1.2
				L19.3,66.2z" />
            </g>
            <g id="g23">
                <path id="path25" inkscape:connector-curvature="0" class="french-open-1" d="M52.9,52.4c-5.3,0-10.8,4.3-12.5,9.6c-1.6,5.3,1,9.7,6.4,9.7
				c6,0,11.1-4.4,12.8-9.7C61.3,56.7,58.3,52.4,52.9,52.4L52.9,52.4z M54.2,60c-0.4,3.2-2.5,7.6-5.6,7.6c-1.9,0-2.8-1.3-2.5-3.7
				c0.3-2.9,2.4-7.4,5.6-7.4C53.8,56.5,54.3,58.3,54.2,60L54.2,60z" />
            </g>
            <g id="g27">
                <path id="path29" inkscape:connector-curvature="0" sodipodi:nodetypes="ccccccscsccccccscscc"
                    class="french-open-1" d="M56.3,78.9l5.8-19
				c0.7-2.1,1.5-5.3,2-7.2H69l-0.8,2.9h0.2c1.7-2,4.1-3.3,6.4-3.3c4,0,5.6,3.3,5.2,7c-0.8,6.5-5.8,12.4-12.2,12.4
				c-1.5,0-2.8-0.4-3.4-0.8h-0.1l-2.4,8L56.3,78.9L56.3,78.9z M65.5,66.7c0.5,0.7,1.3,0.9,2.4,0.9c2.9,0,6-4.4,6.5-8.1
				c0.1-1.5-0.3-3-2-3c-2,0-4.5,2.7-5.6,6.2L65.5,66.7z" />
            </g>
            <g id="g31">
                <path id="path33" inkscape:connector-curvature="0" class="french-open-1" d="M94.1,70.6c-2.3,0.9-4.4,1.2-6.5,1.2c-5.3,0-7.7-3-7.2-7.8
				c0.7-5.7,5.4-11.7,12.2-11.7c3.8,0,6.2,2.1,5.8,5.6c-0.5,4.8-5.4,6.5-12.8,6.4c0,0.5,0,1.3,0.4,1.9c0.7,1,1.7,1.5,3.4,1.5
				c2,0,4.4-0.8,6-1.3L94.1,70.6L94.1,70.6z M91.5,56.3c-2.5,0-4.3,2.1-4.8,3.8c4.3,0,6.5-0.7,6.7-2.3
				C93.5,56.9,92.9,56.3,91.5,56.3z" />
            </g>
            <g id="g35">
                <path id="path37" inkscape:connector-curvature="0" class="french-open-1" d="M97,71.4l3.8-12.5c0.8-2.4,1.3-4.4,1.6-6.1h4.9l-0.8,2.9h0.1
				c2-2.4,4.4-3.3,6.9-3.3c3,0,4.5,1.9,4.1,5c-0.1,0.9-0.4,2.3-0.7,3.2l-3.3,10.8h-5.6c0,0,2.5-8.1,3.2-10.4
				c0.8-2.7,0.9-4.4-1.2-4.4c-1.9,0-4,2-5.3,6.4c-1.3,4.1-2.7,8.6-2.7,8.6h-5.4v-0.1L97,71.4z" />
            </g>
            <g id="g39">
                <path id="path41" inkscape:connector-curvature="0" class="french-open-1" d="M20.9,52.8l-3.8,12.5c-0.8,2.4-1.3,4.4-1.6,6.1h-4.9l0.8-2.9
				h-0.1c-2,2.4-4.4,3.3-6.9,3.3c-3,0-4.5-1.9-4.1-5c0.1-0.9,0.4-2.3,0.7-3.2l3.3-10.8h5.4c0,0-2.5,8.1-3.2,10.4
				c-0.8,2.7-0.9,4.4,1.2,4.4c1.9,0,4-2,5.3-6.4s2.7-8.6,2.7-8.6h5.6v0.1L20.9,52.8z" />
            </g>
        </g>
    </g>
</svg>