<?xml version="1.0" encoding="utf-8"?>
<!-- Generator: Adobe Illustrator 26.0.3, SVG Export Plug-In . SVG Version: 6.00 Build 0)  -->
<svg version="1.1" id="svg2" sodipodi:docname="A.svg" xmlns:cc="http://creativecommons.org/ns#"
    xmlns:dc="http://purl.org/dc/elements/1.1/" xmlns:inkscape="http://www.inkscape.org/namespaces/inkscape"
    xmlns:rdf="http://www.w3.org/1999/02/22-rdf-syntax-ns#"
    xmlns:sodipodi="http://sodipodi.sourceforge.net/DTD/sodipodi-0.dtd" xmlns:svg="http://www.w3.org/2000/svg"
    xmlns="http://www.w3.org/2000/svg" xmlns:xlink="http://www.w3.org/1999/xlink" x="0px" y="0px"
    viewBox="0 0 963.6 647" style="enable-background:new 0 0 963.6 647;" xml:space="preserve">
    <style type="text/css">
        .us-open-0 {
            fill: #00288C;
        }

        .us-open-1 {
            fill: #FFD400;
        }

        .us-open-2 {
            fill: #FFFFFF;
        }
    </style>
    <sodipodi:namedview bordercolor="#666666" borderopacity="1.0" fit-margin-bottom="0" fit-margin-left="0"
        fit-margin-right="0" fit-margin-top="0" id="base" inkscape:current-layer="layer1" inkscape:cx="502.82683"
        inkscape:cy="458.67625" inkscape:document-units="px" inkscape:pageopacity="0.0" inkscape:pageshadow="2"
        inkscape:window-height="857" inkscape:window-maximized="0" inkscape:window-width="904" inkscape:window-x="1008"
        inkscape:window-y="14" inkscape:zoom="0.90234375" pagecolor="#ffffff" showgrid="false">
    </sodipodi:namedview>
    <path class="us-open-0" d="M917.1,647H46.5C20.8,647,0,626.2,0,600.5v-554C0,20.8,20.8,0,46.5,0h870.6c25.7,0,46.5,20.8,46.5,46.5v554
	C963.6,626.2,942.7,647,917.1,647z" />
    <g id="layer1" transform="translate(-97.142872,-413.77251)" inkscape:groupmode="layer" inkscape:label="Layer 1">
        <g id="g5" transform="matrix(8.1885983,0,0,8.1885983,96.000641,413.77251)">
            <g id="g7">
                <path id="path9" inkscape:connector-curvature="0" class="us-open-1" d="M42.1,33.2c23.5,3.3,25,5.6,30.8,5.6c4.5,0,8.3-1.4,11.2-3.7
				C75.2,32.8,56.4,32.4,42.1,33.2L42.1,33.2z" />
            </g>
            <path id="path11" inkscape:connector-curvature="0" class="us-open-1" d="M87.8,15.6c-22.7-1.6-44.5,2-64,10.1c23.9,1.4,41.7,3.4,62,7.7
			c2.4-2.8,3.9-6.3,3.9-10.3C89.7,20.4,89.1,17.7,87.8,15.6L87.8,15.6z" />
            <path id="path13" inkscape:connector-curvature="0" class="us-open-1" d="M73.4,7.6c-12,0-27.6,4.4-39.8,8.9c16.5-3.2,37.1-3.9,52.7-2.9
			C83.9,10.7,80.2,7.6,73.4,7.6z" />
        </g>
        <g id="g17" transform="matrix(8.1885983,0,0,8.1885983,96.000641,413.77251)">
            <g id="g19">
                <path id="path21" inkscape:connector-curvature="0" class="us-open-2" d="M26.5,61c1,0.5,2.9,1.1,4.6,1.1c1.4,0,2.2-0.5,2.3-1.2
				c0.1-0.7-0.4-1.2-1.9-1.9c-1.9-0.8-3.3-2.2-3-4c0.4-3,3.7-5.1,8-5.1c2,0,3.1,0.3,3.9,0.6l-1,3.3c-0.7-0.3-2-0.8-3.5-0.8
				c-1.3,0-2.3,0.5-2.4,1.3c-0.1,0.6,0.6,1.1,1.9,1.7c1.7,0.8,3.5,2,3.2,4c-0.4,3.5-3.9,5.3-8.3,5.3c-2.2,0-3.6-0.4-4.7-0.9L26.5,61
				z" />
            </g>
            <g id="g23">
                <path id="path25" inkscape:connector-curvature="0" class="us-open-2" d="M54,49.9c-4.3,0-8.8,3.5-10.2,7.8c-1.3,4.3,0.8,7.9,5.2,7.9
				c4.9,0,9.1-3.6,10.5-7.9C60.9,53.3,58.4,49.9,54,49.9L54,49.9z M55,56.1c-0.3,2.6-2,6.1-4.6,6.1c-1.6,0-2.3-1.1-2-3
				c0.2-2.3,2-6,4.6-6C54.7,53.2,55.1,54.7,55,56.1L55,56.1z" />
            </g>
            <g id="g27">
                <path id="path29" inkscape:connector-curvature="0" sodipodi:nodetypes="ccccccscsccccccscscc"
                    class="us-open-2" d="M56.8,71.3
				L61.5,56c0.6-1.7,1.3-4.3,1.7-5.8h4l-0.6,2.3h0.2c1.4-1.6,3.4-2.6,5.2-2.6c3.3,0,4.6,2.6,4.3,5.7c-0.6,5.2-4.7,10-10,10
				c-1.3,0-2.3-0.3-2.8-0.6h-0.1l-2,6.5L56.8,71.3L56.8,71.3z M64.3,61.4c0.4,0.5,1.1,0.7,2,0.7c2.4,0,4.9-3.6,5.3-6.5
				c0.1-1.2-0.2-2.4-1.7-2.4c-1.7,0-3.7,2.2-4.6,5L64.3,61.4z" />
            </g>
            <g id="g31">
                <path id="path33" inkscape:connector-curvature="0" class="us-open-2"
                    d="M87.7,64.6c-1.9,0.7-3.6,0.9-5.3,0.9c-4.3,0-6.3-2.4-5.9-6.3
				c0.6-4.6,4.4-9.4,10-9.4c3.1,0,5,1.7,4.7,4.5c-0.4,3.9-4.4,5.2-10.5,5.1c0,0.4,0,1.1,0.3,1.6c0.6,0.8,1.4,1.2,2.8,1.2
				c1.7,0,3.6-0.6,4.9-1.1L87.7,64.6L87.7,64.6z M85.6,53c-2,0-3.5,1.7-3.9,3c3.5,0,5.3-0.5,5.5-1.9C87.2,53.6,86.7,53,85.6,53z" />
            </g>
            <g id="g35">
                <path id="path37" inkscape:connector-curvature="0" class="us-open-2" d="M90.1,65.2l3.1-10.1c0.6-1.9,1-3.6,1.3-4.9h4l-0.6,2.3H98
				c1.7-1.9,3.6-2.6,5.7-2.6c2.4,0,3.7,1.6,3.4,4c-0.1,0.7-0.3,1.9-0.6,2.6l-2.7,8.7h-4.6c0,0,2-6.5,2.6-8.4
				c0.6-2.2,0.7-3.6-0.9-3.6c-1.6,0-3.2,1.6-4.3,5.1c-1,3.3-2.2,6.9-2.2,6.9h-4.4v-0.1L90.1,65.2z" />
            </g>
            <g id="g39">
                <path id="path41" inkscape:connector-curvature="0" class="us-open-2" d="M27.9,50.2l-3.1,10.1c-0.6,1.9-1,3.6-1.3,4.9h-4l0.6-2.3H20
				c-1.7,1.9-3.6,2.6-5.7,2.6c-2.4,0-3.7-1.6-3.4-4c0.1-0.7,0.3-1.9,0.6-2.6l2.7-8.7h4.4c0,0-2,6.5-2.6,8.4
				c-0.6,2.2-0.7,3.6,0.9,3.6c1.6,0,3.2-1.6,4.3-5.1c1.1-3.5,2.2-6.9,2.2-6.9H28v0.1L27.9,50.2z" />
            </g>
        </g>
    </g>
</svg>