<?xml version="1.0" encoding="utf-8"?>
<!-- Generator: Adobe Illustrator 26.0.3, SVG Export Plug-In . SVG Version: 6.00 Build 0)  -->
<svg version="1.1" id="layer" xmlns="http://www.w3.org/2000/svg" xmlns:xlink="http://www.w3.org/1999/xlink" x="0px"
	y="0px" viewBox="0 0 500 500" style="enable-background:new 0 0 500 500;" xml:space="preserve">
	<style type="text/css">
		.st0 {
			fill: #4C2178;
		}

		.st1 {
			fill: #FFFFFF;
		}

		.st2 {
			fill: #006633;
		}
	</style>
	<g>
		<path class="st0" d="M250,496.8C113.6,496.8,3.1,386.3,3.1,250C3.1,113.6,113.6,3.1,250,3.1c136.3,0,246.8,110.5,246.8,246.8
		C496.8,386.3,386.3,496.8,250,496.8" />
		<path class="st1"
			d="M250,500C112.2,500,0,387.9,0,250S112.2,0,250,0s250,112.2,250,250S387.8,500,250,500 M250,6.3
		C115.6,6.3,6.3,115.6,6.3,250c0,134.3,109.3,243.6,243.7,243.6c134.3,0,243.6-109.3,243.6-243.6C493.6,115.6,384.3,6.3,250,6.3" />
		<path class="st2" d="M249.9,410.1c-88.3,0-160.2-71.9-160.2-160.2S161.5,89.7,249.9,89.7c88.3,0,160.2,71.9,160.2,160.2
		C410.1,338.3,338.3,410.1,249.9,410.1" />
		<path class="st1"
			d="M249.9,92.9c86.6,0,157,70.4,157,157s-70.4,157-157,157s-157-70.4-157-157S163.4,92.9,249.9,92.9 M249.9,86.6
		c-90.2,0-163.3,73.1-163.3,163.3S159.7,413.3,250,413.3c90.2,0,163.4-73.1,163.4-163.4C413.3,159.7,340.2,86.6,249.9,86.6" />
		<polygon class="st1" points="107.4,370.5 112.9,376.7 102.2,397.8 122.6,386.5 127.2,390.7 118.3,412 137.7,399.3 144.3,404 
		113.4,422.4 108.3,418.2 116.9,397.3 97.1,408.1 92.4,403.5 	" />
		<polygon class="st1" points="150.8,408.1 157.1,411.9 140,440.5 133.7,436.7 	" />
		<polygon class="st1" points="166.1,416.8 173.3,420.2 176.4,436.5 188.9,426.4 196.3,428.9 184.9,460.1 178.1,457.9 185.5,437.5 
		171.6,447.2 171.5,447.2 168.1,430.7 159.6,450.5 153,447.5 	" />
		<path class="st1" d="M206,431.5c5.9,1.3,11,2.2,14.3,2.8c3.8,0.5,6.6,2,8.2,4.2c1.3,1.7,1.8,3.7,1.5,6v0.1
		c-0.5,3.7-2.7,5.9-5.4,6.5c3.6,2,5.7,4.6,5,9v0.1c-0.9,6-6.2,8.4-13.7,7.3c-5.3-0.9-10.7-2-16.4-3.3L206,431.5z M216.9,461
		c3.2,0.5,5.3-0.4,5.7-2.8v-0.1c0.3-2.2-1.3-3.8-4.8-4.4c-2.7-0.4-6-1-8.5-1.6c-0.2,1.1-1.2,6.3-1.4,7.1
		C209.9,459.8,212.7,460.3,216.9,461 M216.9,447.5c3.1,0.5,5.4-0.3,5.7-2.7v-0.1c0.3-2.2-1-3.6-4.2-4.2c-3.2-0.6-5.7-1.1-6.7-1.3
		c-0.2,0.9-1.2,6.2-1.4,6.9C212.3,446.7,213.8,446.9,216.9,447.5" />
		<path class="st1" d="M241.4,436.5l7.3,0.1c0,0-0.4,25.6-0.4,26.7c4,0,11-0.2,16.3-0.6c0.1,2.1,0.4,6.6,0.4,6.6
		c-7.9,0.6-17.1,0.7-24.2,0.5L241.4,436.5z" />
		<path class="st1" d="M270.7,435.6c7.9-1,15.2-2.2,23.8-4.2c0,0,1.2,5.4,1.4,6.4c-3.7,0.9-12.1,2.7-16.9,3.3l1,6.7
		c4.7-0.7,9.9-1.7,15.3-3l1.4,6.4c-4.2,1.1-10.6,2.2-15.6,3l1,6.9c6.2-1,11.8-2.1,18.4-3.7l1.4,6.4c-8.6,2.1-17,3.4-26,4.7
		L270.7,435.6z" />
		<path class="st1" d="M304.8,428.6l11.8-4.2c9.8-3.8,19.1,0.3,22.5,9.1v0.1c3.4,8.8-0.7,18.2-10.5,22c-5.5,2.2-9.1,3.3-12.7,4.4
		L304.8,428.6z M326.3,449.3c5.3-2.2,7.9-7.4,5.8-12.9v-0.1c-2.1-5.5-7.4-7.9-13-5.7c0,0-3.3,1.3-4.9,1.8c0.4,1.1,6.8,19,6.8,19
		S323.7,450.4,326.3,449.3" />
		<path class="st1" d="M346.3,429.9L346.3,429.9c-5.2-8-3.1-18.6,5.5-24.2s19-3.2,24.2,4.8v0.1c5.2,7.9,3.1,18.5-5.5,24.1
		C361.8,440.3,351.4,437.9,346.3,429.9 M369.6,414.8L369.6,414.8c-3.2-4.9-9.3-6.6-14.2-3.4c-5,3.2-5.9,9.3-2.8,14.2l0.1,0.1
		c3.1,4.8,9.2,6.5,14.2,3.3C371.8,425.8,372.7,419.7,369.6,414.8" />
		<polygon class="st1" points="371.5,391.7 376.5,387.2 401.9,390.8 387,376.7 391.8,371.3 416,394.2 411.9,398.9 385.2,395.6 
		399.8,411 394.5,415.8 	" />
		<path class="st1" d="M38.6,221.9c-0.5,2.8-0.9,6.3-1.1,9.9l-6.7-0.7c0.8-9.3,2.1-18.8,4-27.6l6.7,1.2c-0.6,3.1-1.6,7.7-1.8,9.9
		c1.2,0.2,26.3,3.8,26.3,3.8l-1.1,7.3C64.9,225.7,40.8,222.2,38.6,221.9" />
		<path class="st1" d="M54.4,149c3-5.7,8.7-15.3,13.1-22.2l5.6,3.4c-3.5,5.2-7.1,11.1-9.5,15.6l5.9,3.3c2.2-3.9,5-8.5,8.2-13.6
		l5.6,3.4c-2.8,4.4-6,9.3-8.1,13.5l6.1,3.4c1.8-3.4,6.3-10.7,9.3-15.2l5.6,3.3c-3.9,5.6-9.5,15-12.7,21.3L54.4,149z" />
		<path class="st1" d="M96.2,116.4L96.2,116.4c-6.8-6.7-7.3-17.3-0.1-24.6c4.4-4.5,8.6-5.7,12.9-5.7l0.5,7.1c-3.5,0.2-6.3,1-8.7,3.4
		c-4,4-3.5,10.2,0.6,14.2l0.1,0.1c4.1,4,10.2,4.6,14.2,0.5c2.7-2.7,3.2-5.4,3.4-9h6.6c0.2,5-0.9,9.3-5.4,13.9
		C113.5,123.3,103,123.1,96.2,116.4" />
		<path class="st1" d="M165.1,47l6.3-2.5l26.2,26.2l-7.5,2.4l-5.6-5.8l-13,5.5v7.7l-6.9,3.3L165.1,47z M179.6,62.3l-8.2-8.4
		l-0.1,11.7L179.6,62.3z" />
		<polygon class="st1" points="197.9,36.2 205.7,34.4 217.5,46.9 224.9,31.3 232.8,30.7 237,63.7 229.7,64.3 227,42.7 219.4,58.5 
		219.2,58.5 207.2,46 211.4,67.2 204.3,68.9 	" />
		<path class="st1" d="M247.6,30l7.2,0.1l6.7,0.2c8.6,0.4,12.5,5.6,12.2,12.1v0.1c-0.3,7.7-6.5,11.2-14,11l-5.5-0.2l-0.3,10h-7.3
		L247.6,30z M260.3,47c3.7,0.1,5.9-1.9,6-4.7v-0.1c0.1-3.3-1.9-5.3-5.6-5.5l-5.8-0.1l-0.4,10.3L260.3,47z" />
		<path class="st1"
			d="M453.1,165.4l2.6,6.7l2.3,6.3c2.9,8.1-0.5,13.7-6.6,15.9h-0.1c-7.3,2.6-12.8-1.9-15.5-8.8l-1.9-5.1l-9.4,3.5
		l-2.8-6.8L453.1,165.4z M442.1,183.5c1.3,3.4,3.9,4.8,6.6,3.8h0.1c3.1-1.1,4.2-3.8,3-7.2l-2.1-5.5l-9.7,3.5L442.1,183.5z" />
		<polygon class="st1" points="286.6,33 293.8,34.4 287.7,67.1 280.5,65.8 	" />
		<path class="st1" d="M300.7,52.2L300.7,52.2c3.2-9,12.8-13.8,22.5-10.4s14.1,13.1,10.9,22.1V64c-3.2,8.9-12.8,13.7-22.5,10.3
		C301.9,70.8,297.5,61.1,300.7,52.2 M326.8,61.5L326.8,61.5c1.9-5.5-0.4-11.4-6-13.4s-11,1.1-12.9,6.4v0.1c-1.9,5.4,0.5,11.3,6,13.3
		C319.5,69.9,324.9,66.8,326.8,61.5" />
		<polygon class="st1" points="351.2,54.6 357.1,57.8 360.1,83.6 371.2,66.4 377.2,70.5 359.1,98.4 353.9,94.9 351.5,68.6 
		340.9,86.9 334.6,83.4 	" />
		<path class="st1"
			d="M370.1,100.9l6.7-1.1c0.7,3.8,2,7.1,4.9,9.6c2.3,2,4.4,2.2,5.7,0.7l0.1-0.1c1.2-1.4,1-2.9-2.3-7.6
		c-4-5.7-6-9.9-1.7-15v-0.1c4-4.6,10.3-4.5,15.4,0c3.7,3.2,5.8,7,6.6,11.3l-6.5,1.7c-0.9-3.5-2.3-6.3-4.4-8.1s-4.1-1.8-5.1-0.6
		l-0.1,0.1c-1.4,1.7-0.8,3.1,2.6,8c4,5.8,5.3,10.1,1.5,14.5l-0.1,0.1c-4.3,5-10.6,4.5-16-0.2C373.5,110.9,370.8,106.2,370.1,100.9" />
		<polygon class="st1" points="418.5,108.5 423.1,114.1 412.7,122.2 420.8,133.3 431.6,125.7 435.7,131.9 408.3,150.9 404.3,144.8 
		415.3,137.1 407.4,126.4 396.8,134.5 392.1,128.9 	" />
		<polygon class="st1" points="116.8,74.7 122.7,70.4 130.3,81.2 142.3,73.2 135.4,62 141.8,58.3 159.3,86.6 152.9,90.3 145.9,78.9 
		134.1,86.7 141.8,97.6 136,102 	" />
		<polygon class="st1" points="37.9,191.1 39.9,184.1 52.5,188.1 57,175.2 44.7,170.5 47.5,163.7 78.6,175.5 75.8,182.3 63.3,177.6 
		58.9,190.2 71.7,194.3 69.7,201.3 	" />
		<polygon class="st1" points="443.5,145.2 446.9,151.7 417.1,166.8 413.8,160.3 	" />
		<path class="st1" d="M437.1,206.3l5.7,3.5c-2,3.3-3.1,6.7-2.6,10.5c0.4,3,1.9,4.6,3.8,4.3h0.1c1.8-0.3,2.6-1.5,3.2-7.3
		c0.7-6.9,1.9-11.5,8.5-12.4h0.1c6-0.9,10.7,3.4,11.7,10.1c0.7,4.8-0.2,9.1-2.4,12.9l-6-3c1.6-3.2,2.4-6.3,2-9.1
		c-0.4-2.8-1.9-4.1-3.5-3.8h-0.1c-2.2,0.3-2.7,1.8-3.3,7.8c-0.8,7-2.6,11.1-8.4,11.9h-0.1c-6.6,0.9-11-3.5-12-10.6
		C433.1,216.1,434.1,210.8,437.1,206.3" />
		<path class="st1" d="M262.6,346.6c-3.2,3.3-7.6,5.3-12.5,5.3s-9.3-2-12.5-5.3c-1.8,2.5-2.9,5.6-2.9,8.9s1.1,6.4,2.9,8.9
		c3.2-3.3,7.6-5.3,12.5-5.3s9.3,2,12.5,5.3c1.8-2.5,2.9-5.6,2.9-8.9S264.3,349.1,262.6,346.6" />
		<path class="st1" d="M250,347.6c3.8,0,7.1-1.6,9.5-4.1c-2.6-2.1-5.9-3.4-9.5-3.4s-6.9,1.3-9.6,3.4C242.9,346,246.3,347.6,250,347.6
		" />
		<path class="st1" d="M250,363.3c-3.8,0-7.1,1.6-9.6,4.1c2.6,2.1,5.9,3.4,9.6,3.4c3.6,0,6.9-1.3,9.6-3.4
		C257.2,364.9,253.8,363.4,250,363.3" />
		<path class="st1" d="M179.2,324.7h22.7c2.9-2.9,5.8-5.9,8.7-8.8h-22.9C184.8,318.9,182,321.8,179.2,324.7" />
		<path class="st1" d="M192.4,311.3h22.7c2.9-3,5.8-6,8.4-8.8h-22.2C198.3,305.4,195.4,308.4,192.4,311.3" />
		<path class="st1" d="M174.1,330.2c-2.3,2.5-3.7,4.3,1.5,9.4c5.1,5.2,6.9,3.8,9.4,1.5c0.9-0.8,1.8-1.7,2.7-2.5
		c3.1-2.9,6.4-6.1,9.7-9.3H175C174.6,329.6,174.3,329.9,174.1,330.2" />
		<path class="st1" d="M228.4,297.4l0.4-0.4l0,0c0.8-0.8,0.8-0.9,1.6-1.7c0.8-0.9,1.3-1.4,1.3-2.1l-9.6-9.6c-0.6,0-1.2,0.4-2.1,1.2
		c-0.8,0.8-1,0.9-1.9,1.7l-0.4,0.4c-3.5,3.3-7.5,7.1-11.6,11.1h21.8C228,297.8,228.2,297.6,228.4,297.4" />
		<path class="st1" d="M309.4,336v-22.8c-2.9-2.9-5.9-5.8-8.8-8.7v22.9C303.6,330.3,306.5,333.2,309.4,336" />
		<path class="st1" d="M296.1,322.8v-22.7c-3-2.9-6-5.8-8.8-8.4v22.2C290.1,316.8,293.1,319.8,296.1,322.8" />
		<path class="st1" d="M225.2,236.8l0.1-10h5.5c0.3-0.8,0.5-1.7,0.7-2.5h-6.2V213h7.4c0-0.9-0.1-1.7-0.1-2.5h-7.3v-11.3h5.2
		c-0.3-0.8-0.5-1.7-0.8-2.5h-4.4v-8.1c-1.2-1.9-2.6-3.7-4.2-5.6l-9.6-0.1v-9.1c-0.8-0.7-1.7-1.3-2.5-2v11h-11.2v-11.2h10.9
		c-1.2-0.9-2.4-1.7-3.6-2.5h-7.3v-4c-0.8-0.4-1.7-0.7-2.5-1.1v5.1h-11.2v-7.8c-0.8-0.1-1.7-0.1-2.5-0.2v8h-11.2v-6.3
		c-0.8,0.3-1.7,0.6-2.5,0.9v5.4h-8.6c-0.9,0.8-1.8,1.6-2.7,2.5c-0.8,0.8-1.6,1.7-2.3,2.6l-0.1,8.7h-5.6c-0.4,0.8-0.7,1.7-1,2.5h6.3
		v11.3h-8c0,0.8,0.1,1.7,0.1,2.5h7.9v11.3h-5.1c0.3,0.8,0.7,1.7,1.1,2.5h4.1v7.4c0.8,1.2,1.6,2.5,2.5,3.7V213h11.2v11.3h-11.1
		c0.6,0.8,1.3,1.6,1.9,2.4l9.2,0.1v9.5c1.9,1.6,3.8,3,5.7,4.3h8.1v4c0.8,0.3,1.7,0.7,2.5,1v-5h11.2v7c0.8,0.1,1.7,0.1,2.5,0.1v-7.1
		h11.2v6c0.9-0.2,1.7-0.5,2.5-0.7v-5.3h9.9c0.7-0.6,1.4-1.2,2.1-1.9C224.1,238.1,224.7,237.5,225.2,236.8 M167.7,210.5h-11.2v-11.3
		h11.2V210.5z M167.7,196.7h-11.2v-11.3h11.2V196.7z M167.7,182.9h-11.2v-11.3h11.2V182.9z M181.5,238.1h-11.2v-11.3h11.2V238.1z
		 M181.5,224.3h-11.2V213h11.2V224.3z M181.5,210.5h-11.2v-11.3h11.2V210.5z M181.5,196.7h-11.2v-11.3h11.2V196.7z M181.5,182.9
		h-11.2v-11.3h11.2V182.9z M195.2,238.1H184v-11.3h11.2V238.1z M184,224.3V213h11.2v11.3H184z M184,210.5v-11.3h11.2v11.3H184z
		 M184,196.7v-11.3h11.2v11.3H184z M184,182.9v-11.3h11.2v11.3H184z M209,238.1h-11.2v-11.3H209V238.1z M209,224.3h-11.2V213H209
		V224.3z M209,210.5h-11.2v-11.3H209V210.5z M209,196.7h-11.2v-11.3H209V196.7z M222.8,238.1h-11.2v-11.3h11.2V238.1z M222.8,224.3
		h-11.2V213h11.2V224.3z M222.8,210.5h-11.2v-11.3h11.2V210.5z M222.8,196.7h-11.2v-11.3h11.2V196.7z" />
		<path class="st1" d="M346,210.5v-11.3h7.9c0.1-0.8,0.1-1.7,0.1-2.5h-8.1v-11.3h6.4c-0.3-0.8-0.7-1.7-1-2.5h-5.4v-8.7
		c-0.8-0.9-1.5-1.8-2.4-2.6c-0.9-0.9-1.8-1.7-2.7-2.4l-8.7-0.1v-5.3c-0.8-0.4-1.7-0.7-2.5-0.9v6.3h-11.2v-8c-0.8,0-1.7,0.1-2.5,0.2
		v7.8h-11.2v-5.1c-0.8,0.3-1.7,0.7-2.5,1.1v4h-7.3c-1.2,0.8-2.4,1.6-3.7,2.5h10.9V183h-11.2v-11c-0.8,0.6-1.6,1.2-2.4,1.9l-0.1,9.1
		h-9.5c-1.6,1.8-3,3.7-4.2,5.6v8.2h-4.4c-0.3,0.8-0.6,1.7-0.8,2.5h5.2v11.3h-7.3c-0.1,0.8-0.1,1.7-0.1,2.5h7.4v11.3h-6.2
		c0.2,0.9,0.5,1.7,0.7,2.5h5.5v9.9c0.6,0.7,1.2,1.4,1.8,2c0.7,0.6,1.3,1.3,2,1.8h9.9v5.2c0.8,0.3,1.7,0.5,2.5,0.8v-6h11.2v7.1
		c0.9,0,1.7-0.1,2.5-0.1v-7h11.2v5c0.8-0.3,1.7-0.7,2.5-1v-4h8c1.9-1.3,3.8-2.7,5.7-4.2l0.1-9.6h9.1c0.7-0.8,1.4-1.7,2-2.5h-11.1
		V213h11.2v11.1c0.9-1.2,1.7-2.4,2.5-3.6V213h4.1c0.4-0.8,0.7-1.7,1.1-2.5H346z M288.4,238.1h-11.2v-11.3h11.2V238.1z M288.4,224.3
		h-11.2V213h11.2V224.3z M288.4,210.5h-11.2v-11.3h11.2V210.5z M288.4,196.7h-11.2v-11.3h11.2V196.7z M290.9,185.4h11.2v11.3h-11.2
		V185.4z M302.1,238.1h-11.2v-11.3h11.2V238.1z M302.1,224.3h-11.2V213h11.2V224.3z M302.1,210.5h-11.2v-11.3h11.2V210.5z
		 M315.9,238.1h-11.2v-11.3h11.2V238.1z M315.9,224.3h-11.2V213h11.2V224.3z M315.9,210.5h-11.2v-11.3h11.2V210.5z M315.9,196.7
		h-11.2v-11.3h11.2V196.7z M315.9,182.9h-11.2v-11.3h11.2V182.9z M329.6,238.1h-11.2v-11.3h11.2V238.1z M329.6,224.3h-11.2V213h11.2
		V224.3z M329.6,210.5h-11.2v-11.3h11.2V210.5z M329.6,196.7h-11.2v-11.3h11.2V196.7z M329.6,182.9h-11.2v-11.3h11.2V182.9z
		 M343.4,210.5h-11.2v-11.3h11.2V210.5z M343.4,196.7h-11.2v-11.3h11.2V196.7z M343.4,182.9h-11.2v-11.3h11.2V182.9z" />
		<path class="st1"
			d="M247.3,251.3c-3.2-5.7-4.6-11.7-5.2-19.4c-0.1-3,0-6.3,0.3-9.9c1.4-17.7-2.3-34.6-22.3-52.7
		c-27.7-25-55-19.2-70.1-4c-15.2,15.2-21,42.4,4,70.1c18,20,34.9,23.7,52.7,22.3c3.7-0.3,6.9-0.4,9.9-0.3c8.2,0.6,14.4,2.1,20.4,5.7
		l2.2-2.2C242.7,257.5,245.3,254.4,247.3,251.3 M234.9,218.6c-0.5,5.9-2.4,14.6-9.7,21.9c-7.3,7.3-16,9.2-21.9,9.7
		c-15.7,1.4-29.1-3.1-41.9-16.5c-22.3-23.2-23.1-47.4-6.7-63.8c16.3-16.4,40.6-15.5,63.8,6.7C231.8,189.5,236.3,202.9,234.9,218.6" />
		<path class="st1" d="M253.1,277.1l12.3,12.6l9-9l-12-11.8c-2.6,1.9-5.2,4.2-8.1,7L253.1,277.1z" />
		<path class="st1" d="M314.9,341.1c2.5,2.3,4.3,3.7,9.4-1.5c5.2-5.2,3.8-6.9,1.5-9.4c-0.8-0.9-1.7-1.8-2.5-2.7
		c-2.9-3.1-6.1-6.4-9.3-9.7v22.5C314.3,340.5,314.6,340.8,314.9,341.1" />
		<path class="st1" d="M282.1,286.8l-0.4-0.4c-0.8-0.8-0.9-0.8-1.7-1.6c-0.9-0.8-1.5-1.2-2.1-1.2l-9.6,9.6c0,0.6,0.4,1.2,1.2,2.1
		c0.8,0.8,0.9,1,1.7,1.9l0.4,0.4c3.4,3.5,7.1,7.5,11.1,11.6v-21.8C282.5,287.1,282.3,287,282.1,286.8" />
		<path class="st1" d="M251,272.7c10.9-10.9,18.9-14.4,32.3-15.4c3-0.1,6.3,0,9.9,0.3c17.8,1.4,34.6-2.3,52.7-22.3
		c25-27.7,19.2-55,4-70.1c-15.2-15.2-42.4-21-70.1,4c-20,18-23.7,34.9-22.3,52.7c0.3,3.7,0.4,6.9,0.3,9.9
		c-1,13.4-4.4,21.3-15.3,32.3l-16.9,16.5l9,9L251,272.7z M265,218.6c-1.4-15.7,3.1-29.1,16.5-42c23.2-22.2,47.4-23,63.8-6.7
		s15.5,40.6-6.7,63.8c-12.9,13.4-26.3,17.9-42,16.5c-5.9-0.5-14.6-2.4-21.9-9.7C267.4,233.2,265.5,224.5,265,218.6" />
	</g>
</svg>