<svg id="Layer_1" data-name="Layer 1" xmlns="http://www.w3.org/2000/svg" viewBox="0 0 503.02 338.99"><defs><style>.cls-1{fill:#fff;}</style></defs><path class="cls-1" d="M445.65,2.39a37,37,0,0,0-35.32,26.06l-49,158.94h48.4L423,144.33c14.17,8.19,25.76,22,30.83,43.06H500V2.39ZM427.43,130.06l26.43-85.8v94.33A81.23,81.23,0,0,0,427.43,130.06ZM216,2.39,171.87,145.5V2.39H117.53A37,37,0,0,0,82.2,28.45L46.14,145.5V2.39H0v185H54.34a37,37,0,0,0,35.33-26.06l36.06-117V187.39h54.34a37,37,0,0,0,35.33-26.06l49-158.94Zm187.5,0H279.34l-12.91,41.9H305l-44.09,143.1H307.7l44.09-143.1h38.76l12.9-41.9Z" transform="translate(0.44 -2.39)"/><path class="cls-1" d="M20.71,239.17-.44,340H18.31l8.13-38.59H75.17l3.32-15.83H29.62l6.5-30.67H91l3.32-15.69Zm86.05,0L85.62,340h18.74l21.15-100.78Zm105.38,0-14.66,70.54-40.84-70.54H141.22L120.07,340h18.6l14.8-70.55L194.17,340h15.42l21.14-100.78Zm77.09,18.43L299,301.94H261Zm-5.92-18.43L216.76,340h20l14.8-23.33h50.74L307.45,340H326L301.92,239.17Zm71,0L333.21,340h71.5L408,324.1H355.28l17.82-84.93ZM446,241.76a36.08,36.08,0,0,0-15.6,11.38,27.8,27.8,0,0,0-5.72,17.13v.26a21,21,0,0,0,4.19,13.56,27.24,27.24,0,0,0,10.3,8A135.81,135.81,0,0,0,455,297.62c4.69,1.35,8.36,2.55,11,3.59a20.47,20.47,0,0,1,6.6,4.11,8.17,8.17,0,0,1,2.61,6.15v.11A11.81,11.81,0,0,1,468.51,322a35.27,35.27,0,0,1-17.69,3.81,54.78,54.78,0,0,1-17.76-3,48.9,48.9,0,0,1-15-8L410,329.57a46.43,46.43,0,0,0,16.64,8.49A74.3,74.3,0,0,0,449,341.37a63.1,63.1,0,0,0,23.31-4A36,36,0,0,0,488.09,326a28.12,28.12,0,0,0,5.71-17.28v-.24a19.38,19.38,0,0,0-4.13-12.85A27,27,0,0,0,479.44,288a135.61,135.61,0,0,0-15.54-5.33q-7.48-2.29-11.36-3.81a19.8,19.8,0,0,1-6.59-4.1,8.28,8.28,0,0,1-2-2.89,8.44,8.44,0,0,1-.66-3.47v-.12a12.49,12.49,0,0,1,6.66-10.86,33.43,33.43,0,0,1,17.84-4.1,52.48,52.48,0,0,1,14.68,2,44.7,44.7,0,0,1,12.63,5.76l7.49-14.8A51.14,51.14,0,0,0,487.51,240a75,75,0,0,0-18.58-2.22,61,61,0,0,0-22.94,4" transform="translate(0.44 -2.39)"/></svg>