<svg xmlns="http://www.w3.org/2000/svg" version="1.1" xmlns:xlink="http://www.w3.org/1999/xlink" xmlns:svgjs="http://svgjs.dev/svgjs" width="1000" height="1000"><style>
    #light-icon {
      display: inline;
    }
    #dark-icon {
      display: none;
    }

    @media (prefers-color-scheme: dark) {
      #light-icon {
        display: none;
      }
      #dark-icon {
        display: inline;
      }
    }
  </style><g id="light-icon"><svg xmlns="http://www.w3.org/2000/svg" version="1.1" xmlns:xlink="http://www.w3.org/1999/xlink" xmlns:svgjs="http://svgjs.dev/svgjs" width="1000" height="1000"><g clip-path="url(#SvgjsClipPath1036)"><rect width="1000" height="1000" fill="#ffffff"></rect><g transform="matrix(1.25,0,0,1.25,0,0)"><svg xmlns="http://www.w3.org/2000/svg" version="1.1" xmlns:xlink="http://www.w3.org/1999/xlink" xmlns:svgjs="http://svgjs.dev/svgjs" width="800" height="800"><svg version="1.1" id="Layer_1" xmlns="http://www.w3.org/2000/svg" xmlns:xlink="http://www.w3.org/1999/xlink" x="0px" y="0px" viewBox="0 0 800 800" style="enable-background:new 0 0 800 800;" xml:space="preserve">
<style type="text/css">
	.st0{fill:#71BE5B;}
	.st1{fill:#FFFFFF;}
	.st2{fill:#CCFF00;}
	.st3{fill:#F7F7F7;}
	.st4{fill:#F1F3E0;}
	.st5{opacity:0.49;fill:#2D2D2D;enable-background:new    ;}
	.st6{fill:#EA7053;}
	.st7{fill:#29546C;}
</style>
<g>
	<g>
		<circle class="st0" cx="400" cy="400" r="400"></circle>
		<path class="st1" d="M0.8,425.9l386.8,2.7L227,760.7c31.7,15.2,65.7,26.4,101.4,32.9l176.2-364.2l294.2,2c0.7-9.5,1.2-19,1.2-28.6
			c0.2-30.3-3-59.9-9.2-88.4L10.4,309C3.8,337.3,0.2,366.9,0,397.2C-0.1,406.9,0.2,416.4,0.8,425.9z"></path>
	</g>
</g>
<g id="tennis_ball" transform="translate(-1271.769 -1574.648)">
	<path id="Path_85" class="st2" d="M1896.8,1740.1c0,61.3-49.7,111-111,110.9c-61.3,0-111-49.7-110.9-111
		c0-61.3,49.7-110.9,111-110.9C1847.1,1629.1,1896.8,1678.8,1896.8,1740.1z"></path>
	<path id="Path_86" class="st3" d="M1800.7,1630.2c-4.9-0.7-9.8-1.1-14.7-1.1c-14.2,50.9-57.4,88.3-109.8,95
		c-0.7,4.9-1.1,9.9-1.2,14.8l0.6-0.1c60-6.9,109.7-49.9,125.1-108.3L1800.7,1630.2z M1895.7,1741.1c-53.4,13.1-94.8,55.2-107,108.8
		l-0.2,1c5.2-0.1,10.3-0.6,15.4-1.5c11.9-45.1,46.7-80.6,91.7-93.3c0.8-5.1,1.2-10.2,1.2-15.3L1895.7,1741.1z"></path>
</g>
<g>
	<g>
		<path class="st4" d="M204.6,358.3v87.2h-47.1c-0.2,2.9-0.3,5.7-0.4,8.6h47.5v87.2h-29.4c1.3,2.9,2.6,5.8,4,8.6h25.4v40.3
			c2.8,3.5,5.6,7,8.6,10.3V550h87.3v87.2h-46.6c4.3,3,8.6,5.9,13,8.6h33.6v16.9c2.9,1.1,5.7,2.2,8.6,3.3v-20.2h87.2v31.2
			c2.9-0.3,5.8-0.7,8.6-1.1v-30.2H479c3.7-2.7,7.2-5.6,10.7-8.6h-84.8V550h87.2v85c1.7-1.6,3.4-3.2,5.1-4.9c1.2-1.2,2.4-2.4,3.5-3.6
			V550h40c0.6-2.9,1.2-5.7,1.7-8.6h-41.7v-87.2l36.3,0c-0.8-2.9-1.7-5.7-2.7-8.6h-33.6v-63.6c-2.7-3.7-5.6-7.3-8.6-10.8v74.4h-87.2
			v-87.2l75.6,0c-0.6-0.6-1.2-1.2-1.8-1.9c-2.3-2.3-4.7-4.6-7-6.7l-66.7,0v-43.1c-2.9-1.2-5.7-2.3-8.6-3.4v46.5H309v-59
			c-2.9,0.2-5.8,0.5-8.6,0.9v58.1h-87.3v-19.5c-2.8,2.5-5.6,5-8.3,7.7c-0.1,0.1-0.2,0.2-0.3,0.3v11.5h-10.4
			c-2.3,2.8-4.5,5.7-6.6,8.6L204.6,358.3L204.6,358.3z M404.9,454.1h87.2v87.2h-87.2L404.9,454.1L404.9,454.1z M309,358.3h87.2v87.2
			H309V358.3z M309,454.1h87.2v87.2H309V454.1z M309,550h87.2v87.2H309V550z M213.2,358.3h87.3v87.2h-87.3V358.3z M213.2,454.1h87.3
			v87.2h-87.3V454.1z"></path>
		<path class="st5" d="M204.6,358.3v87.2h-47.1c-0.2,2.9-0.3,5.7-0.4,8.6h47.5v87.2h-29.4c1.3,2.9,2.6,5.8,4,8.6h25.4v40.3
			c2.8,3.5,5.6,7,8.6,10.3V550h87.3v87.2h-46.6c4.3,3,8.6,5.9,13,8.6h33.6v16.9c2.9,1.1,5.7,2.2,8.6,3.3v-20.2h87.2v31.2
			c2.9-0.3,5.8-0.7,8.6-1.1v-30.2H479c3.7-2.7,7.2-5.6,10.7-8.6h-84.8V550h87.2v85c1.7-1.6,3.4-3.2,5.1-4.9c1.2-1.2,2.4-2.4,3.5-3.6
			V550h40c0.6-2.9,1.2-5.7,1.7-8.6h-41.7v-87.2l36.3,0c-0.8-2.9-1.7-5.7-2.7-8.6h-33.6v-63.6c-2.7-3.7-5.6-7.3-8.6-10.8v74.4h-87.2
			v-87.2l75.6,0c-0.6-0.6-1.2-1.2-1.8-1.9c-2.3-2.3-4.7-4.6-7-6.7l-66.7,0v-43.1c-2.9-1.2-5.7-2.3-8.6-3.4v46.5H309v-59
			c-2.9,0.2-5.8,0.5-8.6,0.9v58.1h-87.3v-19.5c-2.8,2.5-5.6,5-8.3,7.7c-0.1,0.1-0.2,0.2-0.3,0.3v11.5h-10.4
			c-2.3,2.8-4.5,5.7-6.6,8.6L204.6,358.3L204.6,358.3z M404.9,454.1h87.2v87.2h-87.2L404.9,454.1L404.9,454.1z M396.3,358.3v87.2
			H309v-87.2 M309,454.1h87.2v87.2H309V454.1z M309,550h87.2v87.2H309V550z M213.2,358.3h87.3v87.2h-87.3V358.3z M213.2,454.1h87.3
			v87.2h-87.3V454.1z"></path>
		<path class="st6" d="M101.1,234c-8.3,8.3-20.3,10.5-30.6,6.7c16.5,51.5,38.1,124.7,38.8,158.9c1.7,80.1,8.4,168.6,70.3,237.6
			c2.6,2.9,5.3,5.8,8.1,8.6c0.3,0.3,0.5,0.5,0.8,0.8c5.2,5.2,10.6,10.2,16.1,15c2.8,2.5,5.7,4.9,8.6,7.2
			c101.9,81.8,241.3,84.4,324.2,1.5c55.9-55.9,72.9-137.7,52.9-216.2c-0.7-2.9-1.5-5.7-2.4-8.6c-8.8-30.3-23.1-59.9-42.8-87.2
			c-2.1-2.9-4.2-5.8-6.5-8.6c-7.6-9.8-15.9-19.3-25-28.3c-4.2-4.2-8.6-8.2-13-12c-2.8-2.4-5.7-4.8-8.6-7.1
			c-67-52.5-150-58.5-225.5-60.1c-34.2-0.7-107.4-22.3-158.9-38.8C111.6,213.7,109.4,225.8,101.1,234z M204.6,338.1
			c0.1-0.1,0.2-0.2,0.3-0.3c2.7-2.7,5.5-5.2,8.3-7.7c24.8-21.5,55.1-34.3,87.3-38.6c2.9-0.4,5.7-0.7,8.6-0.9
			c28.6-2.4,58.5,1.8,87.2,12.5c2.9,1.1,5.8,2.2,8.6,3.4c23.7,10,46.4,24.4,66.7,43.1c2.4,2.2,4.7,4.4,7,6.7
			c0.6,0.6,1.2,1.2,1.8,1.9c4.1,4.2,8,8.4,11.7,12.8c3,3.5,5.9,7.1,8.6,10.8c14.9,19.9,26.2,41.5,33.6,63.6c1,2.9,1.8,5.7,2.7,8.6
			c8.4,29.2,10.3,59,5.5,87.3c-0.5,2.9-1.1,5.8-1.7,8.6c-6.3,28.4-19.6,54.8-40,76.6c-1.1,1.2-2.3,2.4-3.5,3.6
			c-1.7,1.7-3.4,3.3-5.1,4.9v2.2h-2.4c-3.5,3-7,5.9-10.7,8.6c-21.9,16.1-47.3,26.1-74.1,30.2c-2.9,0.4-5.7,0.8-8.6,1.1
			c-28.5,2.9-58.4-0.8-87.2-11c-2.9-1-5.8-2.1-8.6-3.3c-11.5-4.6-22.7-10.3-33.6-16.9c-4.4-2.7-8.7-5.6-13-8.6
			c-10.6-7.5-20.8-16.1-30.3-25.6c-3.6-3.6-7-7.2-10.3-11c-3-3.4-5.9-6.8-8.6-10.3c-10.1-12.8-18.5-26.3-25.4-40.3
			c-1.4-2.9-2.7-5.7-4-8.6c-12.5-28.4-18.6-58.3-18.1-87.2c0.1-2.9,0.2-5.7,0.4-8.6c2-31.5,12-61.7,30.2-87.2
			c2.1-2.9,4.3-5.8,6.6-8.6C198.5,344.4,202.3,340.1,204.6,338.1z M126.3,326.9l-24.8-92.4l92.4,24.8L126.3,326.9z"></path>
		<path class="st7" d="M107.8,203.4c-1.4-3.8-3.6-7.4-6.7-10.4l-27.6-27.6c-4.4,7.3-8.7,14.8-12.7,22.4c-1.6,3.1-3.3,6.2-4.8,9.4
			c-3.7,7.4-7.2,14.8-10.5,22.4L60.1,234c3.1,3.1,6.6,5.3,10.4,6.7c10.3,3.8,22.4,1.6,30.6-6.7C109.4,225.8,111.6,213.7,107.8,203.4
			z"></path>
	</g>
</g>
</svg></svg></g></g><defs><clipPath id="SvgjsClipPath1036"><rect width="1000" height="1000" x="0" y="0" rx="350" ry="350"></rect></clipPath></defs></svg></g><g id="dark-icon"><svg xmlns="http://www.w3.org/2000/svg" version="1.1" xmlns:xlink="http://www.w3.org/1999/xlink" xmlns:svgjs="http://svgjs.dev/svgjs" width="1000" height="1000"><g clip-path="url(#SvgjsClipPath1037)"><rect width="1000" height="1000" fill="#ffffff"></rect><g transform="matrix(1.25,0,0,1.25,0,0)"><svg xmlns="http://www.w3.org/2000/svg" version="1.1" xmlns:xlink="http://www.w3.org/1999/xlink" xmlns:svgjs="http://svgjs.dev/svgjs" width="800" height="800"><svg version="1.1" id="Layer_1" xmlns="http://www.w3.org/2000/svg" xmlns:xlink="http://www.w3.org/1999/xlink" x="0px" y="0px" viewBox="0 0 800 800" style="enable-background:new 0 0 800 800;" xml:space="preserve">
<style type="text/css">
	.st0{fill:#71BE5B;}
	.st1{fill:#FFFFFF;}
	.st2{fill:#CCFF00;}
	.st3{fill:#F7F7F7;}
	.st4{fill:#F1F3E0;}
	.st5{opacity:0.49;fill:#2D2D2D;enable-background:new    ;}
	.st6{fill:#EA7053;}
	.st7{fill:#29546C;}
</style>
<g>
	<g>
		<circle class="st0" cx="400" cy="400" r="400"></circle>
		<path class="st1" d="M0.8,425.9l386.8,2.7L227,760.7c31.7,15.2,65.7,26.4,101.4,32.9l176.2-364.2l294.2,2c0.7-9.5,1.2-19,1.2-28.6
			c0.2-30.3-3-59.9-9.2-88.4L10.4,309C3.8,337.3,0.2,366.9,0,397.2C-0.1,406.9,0.2,416.4,0.8,425.9z"></path>
	</g>
</g>
<g id="tennis_ball" transform="translate(-1271.769 -1574.648)">
	<path id="Path_85" class="st2" d="M1896.8,1740.1c0,61.3-49.7,111-111,110.9c-61.3,0-111-49.7-110.9-111
		c0-61.3,49.7-110.9,111-110.9C1847.1,1629.1,1896.8,1678.8,1896.8,1740.1z"></path>
	<path id="Path_86" class="st3" d="M1800.7,1630.2c-4.9-0.7-9.8-1.1-14.7-1.1c-14.2,50.9-57.4,88.3-109.8,95
		c-0.7,4.9-1.1,9.9-1.2,14.8l0.6-0.1c60-6.9,109.7-49.9,125.1-108.3L1800.7,1630.2z M1895.7,1741.1c-53.4,13.1-94.8,55.2-107,108.8
		l-0.2,1c5.2-0.1,10.3-0.6,15.4-1.5c11.9-45.1,46.7-80.6,91.7-93.3c0.8-5.1,1.2-10.2,1.2-15.3L1895.7,1741.1z"></path>
</g>
<g>
	<g>
		<path class="st4" d="M204.6,358.3v87.2h-47.1c-0.2,2.9-0.3,5.7-0.4,8.6h47.5v87.2h-29.4c1.3,2.9,2.6,5.8,4,8.6h25.4v40.3
			c2.8,3.5,5.6,7,8.6,10.3V550h87.3v87.2h-46.6c4.3,3,8.6,5.9,13,8.6h33.6v16.9c2.9,1.1,5.7,2.2,8.6,3.3v-20.2h87.2v31.2
			c2.9-0.3,5.8-0.7,8.6-1.1v-30.2H479c3.7-2.7,7.2-5.6,10.7-8.6h-84.8V550h87.2v85c1.7-1.6,3.4-3.2,5.1-4.9c1.2-1.2,2.4-2.4,3.5-3.6
			V550h40c0.6-2.9,1.2-5.7,1.7-8.6h-41.7v-87.2l36.3,0c-0.8-2.9-1.7-5.7-2.7-8.6h-33.6v-63.6c-2.7-3.7-5.6-7.3-8.6-10.8v74.4h-87.2
			v-87.2l75.6,0c-0.6-0.6-1.2-1.2-1.8-1.9c-2.3-2.3-4.7-4.6-7-6.7l-66.7,0v-43.1c-2.9-1.2-5.7-2.3-8.6-3.4v46.5H309v-59
			c-2.9,0.2-5.8,0.5-8.6,0.9v58.1h-87.3v-19.5c-2.8,2.5-5.6,5-8.3,7.7c-0.1,0.1-0.2,0.2-0.3,0.3v11.5h-10.4
			c-2.3,2.8-4.5,5.7-6.6,8.6L204.6,358.3L204.6,358.3z M404.9,454.1h87.2v87.2h-87.2L404.9,454.1L404.9,454.1z M309,358.3h87.2v87.2
			H309V358.3z M309,454.1h87.2v87.2H309V454.1z M309,550h87.2v87.2H309V550z M213.2,358.3h87.3v87.2h-87.3V358.3z M213.2,454.1h87.3
			v87.2h-87.3V454.1z"></path>
		<path class="st5" d="M204.6,358.3v87.2h-47.1c-0.2,2.9-0.3,5.7-0.4,8.6h47.5v87.2h-29.4c1.3,2.9,2.6,5.8,4,8.6h25.4v40.3
			c2.8,3.5,5.6,7,8.6,10.3V550h87.3v87.2h-46.6c4.3,3,8.6,5.9,13,8.6h33.6v16.9c2.9,1.1,5.7,2.2,8.6,3.3v-20.2h87.2v31.2
			c2.9-0.3,5.8-0.7,8.6-1.1v-30.2H479c3.7-2.7,7.2-5.6,10.7-8.6h-84.8V550h87.2v85c1.7-1.6,3.4-3.2,5.1-4.9c1.2-1.2,2.4-2.4,3.5-3.6
			V550h40c0.6-2.9,1.2-5.7,1.7-8.6h-41.7v-87.2l36.3,0c-0.8-2.9-1.7-5.7-2.7-8.6h-33.6v-63.6c-2.7-3.7-5.6-7.3-8.6-10.8v74.4h-87.2
			v-87.2l75.6,0c-0.6-0.6-1.2-1.2-1.8-1.9c-2.3-2.3-4.7-4.6-7-6.7l-66.7,0v-43.1c-2.9-1.2-5.7-2.3-8.6-3.4v46.5H309v-59
			c-2.9,0.2-5.8,0.5-8.6,0.9v58.1h-87.3v-19.5c-2.8,2.5-5.6,5-8.3,7.7c-0.1,0.1-0.2,0.2-0.3,0.3v11.5h-10.4
			c-2.3,2.8-4.5,5.7-6.6,8.6L204.6,358.3L204.6,358.3z M404.9,454.1h87.2v87.2h-87.2L404.9,454.1L404.9,454.1z M396.3,358.3v87.2
			H309v-87.2 M309,454.1h87.2v87.2H309V454.1z M309,550h87.2v87.2H309V550z M213.2,358.3h87.3v87.2h-87.3V358.3z M213.2,454.1h87.3
			v87.2h-87.3V454.1z"></path>
		<path class="st6" d="M101.1,234c-8.3,8.3-20.3,10.5-30.6,6.7c16.5,51.5,38.1,124.7,38.8,158.9c1.7,80.1,8.4,168.6,70.3,237.6
			c2.6,2.9,5.3,5.8,8.1,8.6c0.3,0.3,0.5,0.5,0.8,0.8c5.2,5.2,10.6,10.2,16.1,15c2.8,2.5,5.7,4.9,8.6,7.2
			c101.9,81.8,241.3,84.4,324.2,1.5c55.9-55.9,72.9-137.7,52.9-216.2c-0.7-2.9-1.5-5.7-2.4-8.6c-8.8-30.3-23.1-59.9-42.8-87.2
			c-2.1-2.9-4.2-5.8-6.5-8.6c-7.6-9.8-15.9-19.3-25-28.3c-4.2-4.2-8.6-8.2-13-12c-2.8-2.4-5.7-4.8-8.6-7.1
			c-67-52.5-150-58.5-225.5-60.1c-34.2-0.7-107.4-22.3-158.9-38.8C111.6,213.7,109.4,225.8,101.1,234z M204.6,338.1
			c0.1-0.1,0.2-0.2,0.3-0.3c2.7-2.7,5.5-5.2,8.3-7.7c24.8-21.5,55.1-34.3,87.3-38.6c2.9-0.4,5.7-0.7,8.6-0.9
			c28.6-2.4,58.5,1.8,87.2,12.5c2.9,1.1,5.8,2.2,8.6,3.4c23.7,10,46.4,24.4,66.7,43.1c2.4,2.2,4.7,4.4,7,6.7
			c0.6,0.6,1.2,1.2,1.8,1.9c4.1,4.2,8,8.4,11.7,12.8c3,3.5,5.9,7.1,8.6,10.8c14.9,19.9,26.2,41.5,33.6,63.6c1,2.9,1.8,5.7,2.7,8.6
			c8.4,29.2,10.3,59,5.5,87.3c-0.5,2.9-1.1,5.8-1.7,8.6c-6.3,28.4-19.6,54.8-40,76.6c-1.1,1.2-2.3,2.4-3.5,3.6
			c-1.7,1.7-3.4,3.3-5.1,4.9v2.2h-2.4c-3.5,3-7,5.9-10.7,8.6c-21.9,16.1-47.3,26.1-74.1,30.2c-2.9,0.4-5.7,0.8-8.6,1.1
			c-28.5,2.9-58.4-0.8-87.2-11c-2.9-1-5.8-2.1-8.6-3.3c-11.5-4.6-22.7-10.3-33.6-16.9c-4.4-2.7-8.7-5.6-13-8.6
			c-10.6-7.5-20.8-16.1-30.3-25.6c-3.6-3.6-7-7.2-10.3-11c-3-3.4-5.9-6.8-8.6-10.3c-10.1-12.8-18.5-26.3-25.4-40.3
			c-1.4-2.9-2.7-5.7-4-8.6c-12.5-28.4-18.6-58.3-18.1-87.2c0.1-2.9,0.2-5.7,0.4-8.6c2-31.5,12-61.7,30.2-87.2
			c2.1-2.9,4.3-5.8,6.6-8.6C198.5,344.4,202.3,340.1,204.6,338.1z M126.3,326.9l-24.8-92.4l92.4,24.8L126.3,326.9z"></path>
		<path class="st7" d="M107.8,203.4c-1.4-3.8-3.6-7.4-6.7-10.4l-27.6-27.6c-4.4,7.3-8.7,14.8-12.7,22.4c-1.6,3.1-3.3,6.2-4.8,9.4
			c-3.7,7.4-7.2,14.8-10.5,22.4L60.1,234c3.1,3.1,6.6,5.3,10.4,6.7c10.3,3.8,22.4,1.6,30.6-6.7C109.4,225.8,111.6,213.7,107.8,203.4
			z"></path>
	</g>
</g>
</svg></svg></g></g><defs><clipPath id="SvgjsClipPath1037"><rect width="1000" height="1000" x="0" y="0" rx="500" ry="500"></rect></clipPath></defs></svg></g></svg>